<?xml version="1.0" encoding="utf-8"?>
<!-- Generator: Adobe Illustrator 17.1.0, SVG Export Plug-In . SVG Version: 6.00 Build 0)  -->
<!DOCTYPE svg PUBLIC "-//W3C//DTD SVG 1.1//EN" "http://www.w3.org/Graphics/SVG/1.1/DTD/svg11.dtd">
<svg version="1.1" id="Ebene_1" xmlns="http://www.w3.org/2000/svg" xmlns:xlink="http://www.w3.org/1999/xlink" x="0px" y="0px"
	 viewBox="0.5 8.8 49.5 19.2" enable-background="new 0.5 8.8 49.5 19.2" xml:space="preserve">
<g>
	<g>
		<path fill="#FFFFFF" d="M0.5,14.5h2.4l0.3,1.4c0.6-0.5,1.1-0.9,1.7-1.2c0.6-0.3,1.2-0.5,2-0.5c0.7,0,1.2,0.1,1.7,0.4
			c0.5,0.3,0.8,0.7,1.1,1.3c0.6-0.5,1.2-0.9,1.7-1.2c0.6-0.3,1.3-0.5,2-0.5c0.9,0,1.7,0.3,2.3,0.8c0.6,0.5,0.8,1.4,0.8,2.6v10.1h-3
			v-9.3c0-0.7-0.1-1.1-0.3-1.4c-0.2-0.2-0.5-0.3-1-0.3c-0.4,0-0.8,0.1-1.2,0.3c-0.4,0.2-0.8,0.5-1.1,0.8v9.9H7v-9.3
			c0-0.7-0.1-1.1-0.3-1.4c-0.2-0.2-0.5-0.3-1-0.3c-0.4,0-0.8,0.1-1.2,0.3c-0.4,0.2-0.8,0.5-1.1,0.8v9.8h-3V14.5z"/>
	</g>
	<g>
		<path fill="#FFFFFF" d="M24.1,28c-0.7,0-1.3-0.1-1.8-0.3c-0.6-0.2-1-0.6-1.4-1.1c-0.4-0.5-0.7-1.2-0.9-2.1c-0.2-0.9-0.3-2-0.3-3.3
			c0-1.3,0.1-2.4,0.3-3.3c0.2-0.9,0.5-1.6,0.8-2.2c0.4-0.5,0.8-0.9,1.4-1.2c0.6-0.2,1.2-0.4,2-0.4c0.7,0,1.3,0.1,1.9,0.4
			c0.5,0.3,1,0.6,1.4,1V8.8h3v18.9h-2.4l-0.3-1.3c-0.5,0.5-1,0.9-1.6,1.2C25.4,27.8,24.8,28,24.1,28z M24.8,25.5
			c0.5,0,1-0.1,1.4-0.3c0.4-0.2,0.8-0.4,1.1-0.8v-6.8c-0.3-0.3-0.6-0.5-1-0.8c-0.4-0.2-0.8-0.3-1.3-0.3c-0.4,0-0.8,0.1-1,0.2
			c-0.3,0.1-0.5,0.3-0.7,0.7c-0.2,0.3-0.3,0.8-0.4,1.4c-0.1,0.6-0.1,1.3-0.1,2.3c0,0.9,0,1.7,0.1,2.3c0.1,0.6,0.2,1,0.3,1.4
			c0.2,0.3,0.4,0.5,0.6,0.7C24.1,25.5,24.4,25.5,24.8,25.5z"/>
	</g>
	<g>
		<path fill="#FFFFFF" d="M34,14.5h2.4l0.3,1.4c0.6-0.5,1.1-0.9,1.7-1.2c0.6-0.3,1.2-0.5,2-0.5c0.7,0,1.2,0.1,1.7,0.4
			c0.5,0.3,0.8,0.7,1.1,1.3c0.6-0.5,1.2-0.9,1.7-1.2c0.6-0.3,1.3-0.5,2-0.5c0.9,0,1.7,0.3,2.3,0.8c0.6,0.5,0.8,1.4,0.8,2.6v10.1h-3
			v-9.3c0-0.7-0.1-1.1-0.3-1.4c-0.2-0.2-0.5-0.3-1-0.3c-0.4,0-0.8,0.1-1.2,0.3c-0.4,0.2-0.8,0.5-1.1,0.8v9.9h-3v-9.3
			c0-0.7-0.1-1.1-0.3-1.4c-0.2-0.2-0.5-0.3-1-0.3c-0.4,0-0.8,0.1-1.2,0.3c-0.4,0.2-0.8,0.5-1.1,0.8v9.8h-3L34,14.5L34,14.5z"/>
	</g>
</g>
</svg>
