<?xml version="1.0" encoding="utf-8"?>
<!-- Generator: Adobe Illustrator 17.1.0, SVG Export Plug-In . SVG Version: 6.00 Build 0)  -->
<!DOCTYPE svg PUBLIC "-//W3C//DTD SVG 1.1//EN" "http://www.w3.org/Graphics/SVG/1.1/DTD/svg11.dtd">
<svg version="1.1" id="Ebene_1" xmlns="http://www.w3.org/2000/svg" xmlns:xlink="http://www.w3.org/1999/xlink" x="0px" y="0px"
	 viewBox="0 0 50 50" enable-background="new 0 0 50 50" xml:space="preserve">
<g>
	<g>
		<path fill="#FFFFFF" d="M0.5,14.5h2.4l0.3,1.4c0.6-0.5,1.1-0.9,1.7-1.2c0.6-0.3,1.2-0.5,2-0.5c0.7,0,1.2,0.1,1.7,0.4
			c0.5,0.3,0.8,0.7,1.1,1.3c0.6-0.5,1.2-0.9,1.7-1.2c0.6-0.3,1.3-0.5,2-0.5c0.9,0,1.7,0.3,2.3,0.8c0.6,0.5,0.8,1.4,0.8,2.6v10.1h-3
			v-9.3c0-0.7-0.1-1.1-0.3-1.4c-0.2-0.2-0.5-0.3-1-0.3c-0.4,0-0.8,0.1-1.2,0.3c-0.4,0.2-0.8,0.5-1.1,0.8v9.9H7v-9.3
			c0-0.7-0.1-1.1-0.3-1.4c-0.2-0.2-0.5-0.3-1-0.3c-0.4,0-0.8,0.1-1.2,0.3c-0.4,0.2-0.8,0.5-1.1,0.8v9.8h-3V14.5z"/>
	</g>
	<g>
		<path fill="#FFFFFF" d="M24.1,28c-0.7,0-1.3-0.1-1.8-0.3c-0.6-0.2-1-0.6-1.4-1.1c-0.4-0.5-0.7-1.2-0.9-2.1c-0.2-0.9-0.3-2-0.3-3.3
			c0-1.3,0.1-2.4,0.3-3.3c0.2-0.9,0.5-1.6,0.8-2.2c0.4-0.5,0.8-0.9,1.4-1.2c0.6-0.2,1.2-0.4,2-0.4c0.7,0,1.3,0.1,1.9,0.4
			c0.5,0.3,1,0.6,1.4,1V8.8h3v18.9h-2.4l-0.3-1.3c-0.5,0.5-1,0.9-1.6,1.2C25.4,27.8,24.8,28,24.1,28z M24.8,25.5
			c0.5,0,1-0.1,1.4-0.3c0.4-0.2,0.8-0.4,1.1-0.8v-6.8c-0.3-0.3-0.6-0.5-1-0.8c-0.4-0.2-0.8-0.3-1.3-0.3c-0.4,0-0.8,0.1-1,0.2
			c-0.3,0.1-0.5,0.3-0.7,0.7c-0.2,0.3-0.3,0.8-0.4,1.4c-0.1,0.6-0.1,1.3-0.1,2.3c0,0.9,0,1.7,0.1,2.3c0.1,0.6,0.2,1,0.3,1.4
			c0.2,0.3,0.4,0.5,0.6,0.7C24.1,25.5,24.4,25.5,24.8,25.5z"/>
	</g>
	<g>
		<path fill="#FFFFFF" d="M34,14.5h2.4l0.3,1.4c0.6-0.5,1.1-0.9,1.7-1.2c0.6-0.3,1.2-0.5,2-0.5c0.7,0,1.2,0.1,1.7,0.4
			c0.5,0.3,0.8,0.7,1.1,1.3c0.6-0.5,1.2-0.9,1.7-1.2c0.6-0.3,1.3-0.5,2-0.5c0.9,0,1.7,0.3,2.3,0.8c0.6,0.5,0.8,1.4,0.8,2.6v10.1h-3
			v-9.3c0-0.7-0.1-1.1-0.3-1.4c-0.2-0.2-0.5-0.3-1-0.3c-0.4,0-0.8,0.1-1.2,0.3c-0.4,0.2-0.8,0.5-1.1,0.8v9.9h-3v-9.3
			c0-0.7-0.1-1.1-0.3-1.4c-0.2-0.2-0.5-0.3-1-0.3c-0.4,0-0.8,0.1-1.2,0.3c-0.4,0.2-0.8,0.5-1.1,0.8v9.8h-3L34,14.5L34,14.5z"/>
	</g>
</g>
<g>
	<path fill="#FFFFFF" d="M0.5,30.4H1l0.7,2c0,0.1,0.1,0.3,0.1,0.4c0,0.1,0,0.2,0.1,0.3h0c0,0,0-0.1,0-0.1c0,0,0-0.1,0-0.1
		s0-0.1,0-0.2c0-0.1,0-0.1,0.1-0.2l0.7-2h0.5V34H2.9v-2.4c0-0.2,0-0.4,0-0.6c0-0.1,0-0.2,0-0.3h0c0,0.1,0,0.2-0.1,0.3
		c0,0.1-0.1,0.3-0.2,0.5L2,33.3H1.7l-0.6-1.7C1,31.4,1,31.3,1,31.3c0-0.1,0-0.2-0.1-0.2c0-0.1,0-0.1,0-0.2c0-0.1,0-0.1,0-0.2h0
		c0,0.1,0,0.3,0,0.4c0,0.1,0,0.3,0,0.5V34H0.5L0.5,30.4L0.5,30.4z"/>
	<path fill="#FFFFFF" d="M5.4,32.2c0-0.2,0-0.3-0.1-0.4c-0.1-0.1-0.2-0.1-0.3-0.1c-0.1,0-0.3,0-0.4,0.1c-0.1,0-0.2,0.1-0.4,0.2
		l-0.1-0.2c0.1-0.1,0.2-0.1,0.4-0.2c0.1-0.1,0.3-0.1,0.5-0.1c0.2,0,0.4,0.1,0.5,0.2c0.1,0.1,0.2,0.3,0.2,0.5V34H5.5l-0.1-0.3
		c0,0-0.1,0.1-0.1,0.1c0,0-0.1,0.1-0.2,0.1C5.1,33.9,5,34,4.9,34c-0.1,0-0.1,0-0.2,0c-0.2,0-0.4-0.1-0.5-0.2C4.1,33.7,4,33.5,4,33.3
		c0-0.3,0.1-0.5,0.3-0.6c0.2-0.1,0.4-0.2,0.8-0.2h0.3L5.4,32.2L5.4,32.2z M5.4,32.7H5.1c-0.2,0-0.3,0-0.4,0c-0.1,0-0.2,0.1-0.2,0.1
		c-0.1,0-0.1,0.1-0.1,0.2c0,0.1,0,0.2,0,0.3c0,0.2,0,0.3,0.1,0.4c0.1,0.1,0.2,0.1,0.3,0.1c0.1,0,0.3,0,0.4-0.1
		c0.1-0.1,0.2-0.2,0.3-0.2C5.4,33.4,5.4,32.7,5.4,32.7z"/>
	<path fill="#FFFFFF" d="M7.1,34c-0.2,0-0.3,0-0.5-0.1c-0.1-0.1-0.3-0.1-0.3-0.2l0.1-0.2c0.1,0.1,0.2,0.1,0.3,0.2
		c0.1,0,0.2,0.1,0.4,0.1c0.2,0,0.3,0,0.4-0.1c0.1-0.1,0.1-0.2,0.1-0.3c0-0.1,0-0.1,0-0.2c0,0,0-0.1-0.1-0.1c0,0-0.1-0.1-0.2-0.1
		c-0.1,0-0.2-0.1-0.3-0.1c-0.1,0-0.2-0.1-0.3-0.1c-0.1,0-0.1-0.1-0.2-0.1c-0.1-0.1-0.1-0.1-0.1-0.2c0-0.1,0-0.2,0-0.3
		c0-0.1,0-0.2,0-0.2c0-0.1,0.1-0.1,0.1-0.2c0.1-0.1,0.1-0.1,0.2-0.1c0.1,0,0.2,0,0.3,0c0.2,0,0.3,0,0.4,0s0.2,0.1,0.3,0.1l-0.1,0.2
		c-0.1,0-0.2-0.1-0.3-0.1c-0.1,0-0.2,0-0.3,0c-0.1,0-0.2,0-0.3,0.1c-0.1,0.1-0.1,0.1-0.1,0.3c0,0.1,0,0.1,0,0.2c0,0,0,0.1,0.1,0.1
		c0,0,0.1,0.1,0.1,0.1c0.1,0,0.1,0.1,0.2,0.1c0.1,0,0.2,0.1,0.3,0.1c0.1,0,0.2,0.1,0.2,0.1c0.1,0.1,0.1,0.1,0.2,0.2
		c0,0.1,0.1,0.2,0.1,0.3c0,0.2-0.1,0.4-0.2,0.5C7.6,33.9,7.4,34,7.1,34z"/>
	<path fill="#FFFFFF" d="M8.5,31.7v-0.3h0.3v-0.6l0.3-0.1v0.7h0.5v0.3H9.1v1.8c0,0.2,0.1,0.2,0.2,0.2c0.1,0,0.1,0,0.2,0
		c0,0,0.1,0,0.1,0l0.1,0.2c-0.1,0-0.1,0.1-0.2,0.1c-0.1,0-0.1,0-0.2,0c-0.1,0-0.3,0-0.4-0.1c-0.1-0.1-0.1-0.2-0.1-0.4v-1.8L8.5,31.7
		L8.5,31.7z"/>
	<path fill="#FFFFFF" d="M10.5,32.8c0,0.2,0,0.3,0,0.5c0,0.1,0.1,0.2,0.1,0.3s0.1,0.1,0.2,0.2c0.1,0,0.2,0,0.3,0
		c0.1,0,0.3,0,0.4-0.1c0.1,0,0.2-0.1,0.3-0.2l0.2,0.2c-0.1,0.1-0.2,0.2-0.3,0.2c-0.1,0-0.3,0.1-0.4,0.1c-0.1,0-0.3,0-0.4-0.1
		c-0.1,0-0.2-0.1-0.3-0.2c-0.1-0.1-0.2-0.2-0.2-0.4c0-0.2-0.1-0.4-0.1-0.6c0-0.2,0-0.4,0.1-0.6c0-0.2,0.1-0.3,0.2-0.4
		c0.1-0.1,0.2-0.2,0.3-0.2c0.1,0,0.2-0.1,0.4-0.1c0.3,0,0.5,0.1,0.7,0.3s0.2,0.5,0.2,0.9v0.1C12,32.8,10.5,32.8,10.5,32.8z
		 M11.6,32.5c0-0.2,0-0.3,0-0.4c0-0.1-0.1-0.2-0.1-0.3c0-0.1-0.1-0.1-0.2-0.1c-0.1,0-0.2,0-0.2,0c-0.1,0-0.2,0-0.2,0
		c-0.1,0-0.1,0.1-0.2,0.1c-0.1,0.1-0.1,0.2-0.1,0.3c0,0.1-0.1,0.2-0.1,0.4H11.6z"/>
	<path fill="#FFFFFF" d="M12.7,31.5h0.2l0.1,0.4c0.1-0.1,0.2-0.2,0.3-0.3c0.1-0.1,0.3-0.1,0.4-0.1c0,0,0,0,0,0c0,0,0,0,0,0l0,0.3
		c0,0-0.1,0-0.1,0c-0.1,0-0.2,0-0.3,0.1S13.1,32,13,32.1V34h-0.3V31.5z"/>
	<path fill="#FFFFFF" d="M15.7,30.4h0.8c0.3,0,0.5,0,0.6,0.1c0.2,0.1,0.3,0.2,0.4,0.3c0.1,0.1,0.2,0.3,0.2,0.6s0.1,0.5,0.1,0.8
		c0,0.3,0,0.6-0.1,0.8c-0.1,0.2-0.1,0.4-0.2,0.5c-0.1,0.1-0.3,0.2-0.4,0.3c-0.2,0.1-0.4,0.1-0.6,0.1h-0.8L15.7,30.4L15.7,30.4z
		 M16.5,33.7c0.2,0,0.4,0,0.5-0.1c0.1-0.1,0.2-0.1,0.3-0.3c0.1-0.1,0.1-0.3,0.2-0.5c0-0.2,0-0.4,0-0.7c0-0.3,0-0.5,0-0.7
		c0-0.2-0.1-0.4-0.2-0.5c-0.1-0.1-0.2-0.2-0.3-0.3c-0.1-0.1-0.3-0.1-0.5-0.1H16v3C16,33.7,16.5,33.7,16.5,33.7z"/>
	<path fill="#FFFFFF" d="M18.8,32.8c0,0.2,0,0.3,0,0.5c0,0.1,0.1,0.2,0.1,0.3s0.1,0.1,0.2,0.2c0.1,0,0.2,0,0.3,0
		c0.1,0,0.3,0,0.4-0.1c0.1,0,0.2-0.1,0.3-0.2l0.2,0.2c-0.1,0.1-0.2,0.2-0.3,0.2c-0.1,0-0.3,0.1-0.4,0.1c-0.1,0-0.3,0-0.4-0.1
		c-0.1,0-0.2-0.1-0.3-0.2c-0.1-0.1-0.2-0.2-0.2-0.4c0-0.2-0.1-0.4-0.1-0.6c0-0.2,0-0.4,0.1-0.6c0-0.2,0.1-0.3,0.2-0.4
		c0.1-0.1,0.2-0.2,0.3-0.2c0.1,0,0.2-0.1,0.4-0.1c0.3,0,0.5,0.1,0.7,0.3c0.1,0.2,0.2,0.5,0.2,0.9v0.1C20.3,32.8,18.8,32.8,18.8,32.8
		z M20,32.5c0-0.2,0-0.3,0-0.4c0-0.1-0.1-0.2-0.1-0.3c0-0.1-0.1-0.1-0.2-0.1c-0.1,0-0.2,0-0.2,0c-0.1,0-0.2,0-0.2,0
		c-0.1,0-0.1,0.1-0.2,0.1c-0.1,0.1-0.1,0.2-0.1,0.3c0,0.1-0.1,0.2-0.1,0.4H20z"/>
	<path fill="#FFFFFF" d="M21.6,34c-0.2,0-0.3,0-0.5-0.1c-0.1-0.1-0.3-0.1-0.3-0.2l0.1-0.2c0.1,0.1,0.2,0.1,0.3,0.2
		c0.1,0,0.2,0.1,0.4,0.1c0.2,0,0.3,0,0.4-0.1s0.1-0.2,0.1-0.3c0-0.1,0-0.1,0-0.2c0,0,0-0.1-0.1-0.1c0,0-0.1-0.1-0.2-0.1
		c-0.1,0-0.2-0.1-0.3-0.1c-0.1,0-0.2-0.1-0.3-0.1c-0.1,0-0.1-0.1-0.2-0.1c-0.1-0.1-0.1-0.1-0.1-0.2c0-0.1,0-0.2,0-0.3
		c0-0.1,0-0.2,0-0.2c0-0.1,0.1-0.1,0.1-0.2c0.1-0.1,0.1-0.1,0.2-0.1s0.2,0,0.3,0c0.2,0,0.3,0,0.4,0c0.1,0,0.2,0.1,0.3,0.1l-0.1,0.2
		c-0.1,0-0.2-0.1-0.3-0.1c-0.1,0-0.2,0-0.3,0c-0.1,0-0.2,0-0.3,0.1c-0.1,0.1-0.1,0.1-0.1,0.3c0,0.1,0,0.1,0,0.2c0,0,0,0.1,0.1,0.1
		c0,0,0.1,0.1,0.1,0.1c0.1,0,0.1,0.1,0.2,0.1c0.1,0,0.2,0.1,0.3,0.1c0.1,0,0.2,0.1,0.2,0.1c0.1,0.1,0.1,0.1,0.2,0.2s0.1,0.2,0.1,0.3
		c0,0.2-0.1,0.4-0.2,0.5C22.1,33.9,21.9,34,21.6,34z"/>
	<path fill="#FFFFFF" d="M23.3,31.7l-0.4,0v-0.2h0.7V34h-0.3V31.7z M23.5,30.9c-0.1,0-0.1,0-0.2-0.1s-0.1-0.1-0.1-0.2s0-0.1,0.1-0.2
		c0,0,0.1-0.1,0.2-0.1s0.1,0,0.2,0.1c0,0,0.1,0.1,0.1,0.2s0,0.1-0.1,0.2C23.6,30.9,23.5,30.9,23.5,30.9z"/>
	<path fill="#FFFFFF" d="M26.4,31.5v0.2L26,31.7c0.1,0.1,0.1,0.3,0.1,0.5c0,0.3-0.1,0.5-0.2,0.6C25.8,33,25.6,33,25.3,33
		c-0.1,0-0.2,0-0.3-0.1c0,0-0.1,0.1-0.1,0.2c0,0.1-0.1,0.1-0.1,0.2c0,0,0,0.1,0,0.1c0,0,0.1,0,0.2,0h0.5c0.3,0,0.5,0.1,0.6,0.2
		c0.1,0.1,0.2,0.3,0.2,0.5c0,0.3-0.1,0.4-0.3,0.6c-0.2,0.1-0.4,0.2-0.8,0.2c-0.3,0-0.6-0.1-0.7-0.2c-0.2-0.1-0.2-0.3-0.2-0.5
		c0-0.1,0-0.3,0.1-0.4c0.1-0.1,0.2-0.2,0.2-0.2c-0.1-0.1-0.2-0.2-0.2-0.3c0-0.1,0-0.2,0.1-0.3c0.1-0.1,0.1-0.2,0.2-0.2
		c-0.1-0.1-0.2-0.2-0.2-0.3c-0.1-0.1-0.1-0.2-0.1-0.4c0-0.3,0.1-0.5,0.2-0.6c0.2-0.1,0.4-0.2,0.6-0.2c0.1,0,0.1,0,0.2,0
		c0.1,0,0.1,0,0.2,0L26.4,31.5L26.4,31.5z M24.9,33.8c-0.1,0.1-0.1,0.1-0.2,0.2c0,0.1-0.1,0.2-0.1,0.3c0,0.1,0,0.1,0,0.2
		c0,0.1,0.1,0.1,0.1,0.1c0,0,0.1,0.1,0.2,0.1c0.1,0,0.2,0,0.3,0c0.5,0,0.7-0.2,0.7-0.6c0-0.3-0.2-0.4-0.5-0.4L24.9,33.8L24.9,33.8z
		 M25.3,32.8c0.2,0,0.3,0,0.4-0.1c0.1-0.1,0.1-0.2,0.1-0.4c0-0.2,0-0.3-0.1-0.4c-0.1-0.1-0.2-0.1-0.4-0.1c-0.2,0-0.3,0-0.4,0.1
		c-0.1,0.1-0.1,0.2-0.1,0.4c0,0.2,0,0.3,0.1,0.4C25,32.7,25.2,32.8,25.3,32.8z"/>
	<path fill="#FFFFFF" d="M27,31.5h0.2l0.1,0.4c0.1-0.1,0.2-0.2,0.4-0.3s0.3-0.1,0.4-0.1c0.2,0,0.3,0.1,0.4,0.2
		c0.1,0.1,0.2,0.3,0.2,0.5V34h-0.3v-1.8c0-0.2,0-0.3-0.1-0.3c-0.1-0.1-0.2-0.1-0.3-0.1c-0.1,0-0.2,0-0.4,0.1
		c-0.1,0.1-0.2,0.2-0.3,0.3V34H27V31.5z"/>
	<path fill="#FFFFFF" d="M32.7,33c0.1-0.3,0.2-0.5,0.2-0.9l0.3,0c0,0.2-0.1,0.4-0.1,0.6c0,0.2-0.1,0.4-0.2,0.5l0.6,0.7h-0.4
		l-0.4-0.4c-0.3,0.3-0.6,0.5-1,0.5c-0.2,0-0.4,0-0.5-0.1c-0.1-0.1-0.3-0.1-0.3-0.2c-0.1-0.1-0.1-0.2-0.2-0.3c0-0.1-0.1-0.2-0.1-0.4
		c0-0.3,0.1-0.5,0.2-0.6c0.1-0.2,0.3-0.3,0.6-0.4l0,0c-0.1-0.1-0.2-0.3-0.3-0.4C31,31.4,31,31.2,31,31.1c0-0.2,0.1-0.4,0.2-0.5
		c0.1-0.1,0.3-0.2,0.6-0.2c0.1,0,0.2,0,0.3,0c0.1,0,0.2,0.1,0.2,0.1c0.1,0.1,0.1,0.1,0.2,0.2c0,0.1,0.1,0.2,0.1,0.3
		c0,0.2-0.1,0.3-0.2,0.5s-0.3,0.3-0.5,0.4L32.7,33z M31.5,32.1c-0.2,0.1-0.3,0.2-0.4,0.4C31,32.6,31,32.8,31,33c0,0.1,0,0.2,0,0.3
		c0,0.1,0.1,0.2,0.1,0.2c0.1,0.1,0.1,0.1,0.2,0.2c0.1,0,0.2,0.1,0.4,0.1c0.2,0,0.3,0,0.5-0.1s0.2-0.2,0.3-0.4L31.5,32.1z M31.7,31.8
		c0.2-0.1,0.3-0.2,0.4-0.3c0.1-0.1,0.1-0.2,0.1-0.4c0-0.3-0.1-0.5-0.4-0.5c-0.2,0-0.3,0-0.4,0.1c-0.1,0.1-0.1,0.2-0.1,0.3
		c0,0.1,0,0.2,0.1,0.3c0.1,0.1,0.1,0.2,0.2,0.3L31.7,31.8z"/>
	<path fill="#FFFFFF" d="M35.3,30.4h0.5l0.7,2c0,0.1,0.1,0.3,0.1,0.4c0,0.1,0,0.2,0.1,0.3h0c0,0,0-0.1,0-0.1c0,0,0-0.1,0-0.1
		c0,0,0-0.1,0-0.2c0-0.1,0-0.1,0.1-0.2l0.7-2H38V34h-0.3v-2.4c0-0.2,0-0.4,0-0.6c0-0.1,0-0.2,0-0.3h0c0,0.1,0,0.2-0.1,0.3
		c0,0.1-0.1,0.3-0.2,0.5l-0.6,1.8h-0.3l-0.6-1.7c0-0.1-0.1-0.2-0.1-0.3c0-0.1,0-0.2-0.1-0.2c0-0.1,0-0.1,0-0.2c0-0.1,0-0.1,0-0.2h0
		c0,0.1,0,0.3,0,0.4c0,0.1,0,0.3,0,0.5V34h-0.3L35.3,30.4L35.3,30.4z"/>
	<path fill="#FFFFFF" d="M39.1,32.8c0,0.2,0,0.3,0,0.5c0,0.1,0.1,0.2,0.1,0.3c0.1,0.1,0.1,0.1,0.2,0.2c0.1,0,0.2,0,0.3,0
		c0.1,0,0.3,0,0.4-0.1c0.1,0,0.2-0.1,0.3-0.2l0.2,0.2c-0.1,0.1-0.2,0.2-0.3,0.2C40.1,34,40,34,39.8,34c-0.1,0-0.3,0-0.4-0.1
		c-0.1,0-0.2-0.1-0.3-0.2c-0.1-0.1-0.2-0.2-0.2-0.4c0-0.2-0.1-0.4-0.1-0.6c0-0.2,0-0.4,0.1-0.6c0-0.2,0.1-0.3,0.2-0.4
		c0.1-0.1,0.2-0.2,0.3-0.2c0.1,0,0.2-0.1,0.4-0.1c0.3,0,0.5,0.1,0.7,0.3c0.1,0.2,0.2,0.5,0.2,0.9v0.1C40.6,32.8,39.1,32.8,39.1,32.8
		z M40.3,32.5c0-0.2,0-0.3,0-0.4c0-0.1-0.1-0.2-0.1-0.3c0-0.1-0.1-0.1-0.2-0.1c-0.1,0-0.2,0-0.2,0c-0.1,0-0.2,0-0.2,0
		c-0.1,0-0.1,0.1-0.2,0.1c-0.1,0.1-0.1,0.2-0.1,0.3c0,0.1-0.1,0.2-0.1,0.4H40.3z"/>
	<path fill="#FFFFFF" d="M42.1,34c-0.1,0-0.2,0-0.3-0.1c-0.1,0-0.2-0.1-0.3-0.2s-0.1-0.2-0.2-0.4c0-0.2-0.1-0.4-0.1-0.6
		c0-0.4,0.1-0.8,0.2-1c0.1-0.2,0.4-0.3,0.6-0.3c0.2,0,0.3,0,0.4,0.1c0.1,0.1,0.2,0.1,0.3,0.2v-1.5h0.3V34h-0.2l-0.1-0.3
		c-0.1,0.1-0.2,0.2-0.3,0.3C42.3,34,42.2,34,42.1,34z M42.1,33.7c0.1,0,0.3,0,0.4-0.1c0.1-0.1,0.2-0.1,0.3-0.2V32
		c-0.1-0.1-0.2-0.2-0.3-0.2c-0.1-0.1-0.2-0.1-0.4-0.1c-0.1,0-0.2,0-0.3,0s-0.1,0.1-0.2,0.2c0,0.1-0.1,0.2-0.1,0.3c0,0.1,0,0.3,0,0.5
		c0,0.2,0,0.4,0,0.5c0,0.1,0.1,0.2,0.1,0.3c0,0.1,0.1,0.1,0.2,0.2C41.9,33.7,42,33.7,42.1,33.7z"/>
	<path fill="#FFFFFF" d="M44.2,31.7l-0.4,0v-0.2h0.7V34h-0.3C44.2,34,44.2,31.7,44.2,31.7z M44.3,30.9c-0.1,0-0.1,0-0.2-0.1
		c0,0-0.1-0.1-0.1-0.2s0-0.1,0.1-0.2c0,0,0.1-0.1,0.2-0.1c0.1,0,0.1,0,0.2,0.1c0,0,0.1,0.1,0.1,0.2s0,0.1-0.1,0.2
		C44.4,30.9,44.4,30.9,44.3,30.9z"/>
	<path fill="#FFFFFF" d="M45.6,32.8c0,0.2,0,0.3,0,0.5c0,0.1,0.1,0.2,0.1,0.3c0.1,0.1,0.1,0.1,0.2,0.2c0.1,0,0.2,0,0.3,0
		c0.1,0,0.3,0,0.4-0.1c0.1,0,0.2-0.1,0.3-0.2l0.2,0.2c-0.1,0.1-0.2,0.2-0.3,0.2c-0.1,0-0.3,0.1-0.4,0.1c-0.1,0-0.3,0-0.4-0.1
		c-0.1,0-0.2-0.1-0.3-0.2c-0.1-0.1-0.2-0.2-0.2-0.4c0-0.2-0.1-0.4-0.1-0.6c0-0.2,0-0.4,0.1-0.6c0-0.2,0.1-0.3,0.2-0.4
		c0.1-0.1,0.2-0.2,0.3-0.2c0.1,0,0.2-0.1,0.4-0.1c0.3,0,0.5,0.1,0.7,0.3c0.1,0.2,0.2,0.5,0.2,0.9v0.1C47.1,32.8,45.6,32.8,45.6,32.8
		z M46.8,32.5c0-0.2,0-0.3,0-0.4c0-0.1-0.1-0.2-0.1-0.3c0-0.1-0.1-0.1-0.2-0.1c-0.1,0-0.2,0-0.2,0c-0.1,0-0.2,0-0.2,0
		c-0.1,0-0.1,0.1-0.2,0.1c-0.1,0.1-0.1,0.2-0.1,0.3c0,0.1-0.1,0.2-0.1,0.4H46.8z"/>
	<path fill="#FFFFFF" d="M47.8,31.5H48l0.1,0.4c0.1-0.1,0.2-0.2,0.4-0.3c0.1-0.1,0.3-0.1,0.4-0.1c0.2,0,0.3,0.1,0.4,0.2
		c0.1,0.1,0.2,0.3,0.2,0.5V34h-0.3v-1.8c0-0.2,0-0.3-0.1-0.3c-0.1-0.1-0.2-0.1-0.3-0.1c-0.1,0-0.2,0-0.4,0.1
		c-0.1,0.1-0.2,0.2-0.3,0.3V34h-0.3L47.8,31.5L47.8,31.5z"/>
</g>
<g>
	<path fill="#FFFFFF" d="M0.5,36.4h0.3v1.5h1.5v-1.5h0.3v3.5H2.3v-1.7H0.8v1.7H0.5V36.4z"/>
	<path fill="#FFFFFF" d="M4.6,40c-0.1,0-0.3,0-0.4-0.1c-0.1,0-0.2-0.1-0.3-0.2c-0.1-0.1-0.2-0.2-0.2-0.4c0-0.2-0.1-0.4-0.1-0.6
		c0-0.2,0-0.4,0.1-0.6c0-0.2,0.1-0.3,0.2-0.4c0.1-0.1,0.2-0.2,0.3-0.2c0.1,0,0.2-0.1,0.4-0.1c0.1,0,0.3,0,0.4,0.1
		c0.1,0,0.2,0.1,0.3,0.2c0.1,0.1,0.2,0.2,0.2,0.4c0,0.2,0.1,0.4,0.1,0.6c0,0.2,0,0.4-0.1,0.6c0,0.2-0.1,0.3-0.2,0.4
		c-0.1,0.1-0.2,0.2-0.3,0.2C4.8,39.9,4.7,40,4.6,40z M4.6,39.7c0.1,0,0.2,0,0.3-0.1c0.1,0,0.2-0.1,0.2-0.2c0.1-0.1,0.1-0.2,0.1-0.3
		c0-0.1,0-0.3,0-0.5c0-0.2,0-0.4,0-0.5c0-0.1-0.1-0.2-0.1-0.3c-0.1-0.1-0.1-0.1-0.2-0.2c-0.1,0-0.2-0.1-0.3-0.1s-0.2,0-0.3,0.1
		c-0.1,0-0.2,0.1-0.2,0.2C4,38,4,38.1,3.9,38.2c0,0.1,0,0.3,0,0.5c0,0.2,0,0.4,0,0.5c0,0.1,0.1,0.2,0.1,0.3c0.1,0.1,0.1,0.1,0.2,0.2
		C4.3,39.7,4.4,39.7,4.6,39.7z"/>
	<path fill="#FFFFFF" d="M7.2,40c-0.1,0-0.3,0-0.4-0.1c-0.1,0-0.2-0.1-0.3-0.2c-0.1-0.1-0.2-0.2-0.2-0.4c0-0.2-0.1-0.4-0.1-0.6
		c0-0.2,0-0.4,0.1-0.6c0-0.2,0.1-0.3,0.2-0.4c0.1-0.1,0.2-0.2,0.3-0.2c0.1,0,0.2-0.1,0.4-0.1c0.2,0,0.3,0,0.4,0.1
		c0.1,0,0.2,0.1,0.3,0.2l-0.2,0.2c-0.1-0.1-0.1-0.1-0.2-0.2c-0.1,0-0.2-0.1-0.3-0.1c-0.1,0-0.2,0-0.3,0c-0.1,0-0.1,0.1-0.2,0.2
		c-0.1,0.1-0.1,0.2-0.1,0.3c0,0.1,0,0.3,0,0.5c0,0.2,0,0.4,0,0.5c0,0.1,0.1,0.2,0.1,0.3c0.1,0.1,0.1,0.1,0.2,0.2c0.1,0,0.2,0,0.3,0
		c0.1,0,0.2,0,0.3-0.1c0.1-0.1,0.1-0.1,0.2-0.2L8,39.7c-0.1,0.1-0.2,0.2-0.3,0.2C7.5,39.9,7.4,40,7.2,40z"/>
	<path fill="#FFFFFF" d="M8.8,36.2h0.3v1.6c0.1-0.1,0.2-0.2,0.4-0.3c0.1-0.1,0.3-0.1,0.4-0.1c0.2,0,0.3,0.1,0.4,0.2
		c0.1,0.1,0.2,0.3,0.2,0.5v1.9h-0.3v-1.8c0-0.2,0-0.3-0.1-0.3c-0.1-0.1-0.2-0.1-0.3-0.1c-0.1,0-0.2,0-0.4,0.1
		c-0.1,0.1-0.2,0.2-0.3,0.3v1.9H8.8V36.2z"/>
	<path fill="#FFFFFF" d="M12,40c-0.2,0-0.3,0-0.5-0.1c-0.1-0.1-0.3-0.1-0.3-0.2l0.1-0.2c0.1,0.1,0.2,0.1,0.3,0.2
		c0.1,0,0.2,0.1,0.4,0.1c0.2,0,0.3,0,0.4-0.1c0.1-0.1,0.1-0.2,0.1-0.3c0-0.1,0-0.1,0-0.2c0,0,0-0.1-0.1-0.1c0,0-0.1-0.1-0.2-0.1
		c-0.1,0-0.2-0.1-0.3-0.1c-0.1,0-0.2-0.1-0.3-0.1c-0.1,0-0.1-0.1-0.2-0.1c-0.1-0.1-0.1-0.1-0.1-0.2c0-0.1,0-0.2,0-0.3
		c0-0.1,0-0.2,0-0.2c0-0.1,0.1-0.1,0.1-0.2c0.1-0.1,0.1-0.1,0.2-0.1s0.2,0,0.3,0c0.2,0,0.3,0,0.4,0c0.1,0,0.2,0.1,0.3,0.1l-0.1,0.2
		c-0.1,0-0.2-0.1-0.3-0.1c-0.1,0-0.2,0-0.3,0c-0.1,0-0.2,0-0.3,0.1c-0.1,0.1-0.1,0.1-0.1,0.3c0,0.1,0,0.1,0,0.2c0,0,0,0.1,0.1,0.1
		c0,0,0.1,0.1,0.1,0.1c0.1,0,0.1,0.1,0.2,0.1c0.1,0,0.2,0.1,0.3,0.1c0.1,0,0.2,0.1,0.2,0.1c0.1,0.1,0.1,0.1,0.2,0.2
		c0,0.1,0.1,0.2,0.1,0.3c0,0.2-0.1,0.4-0.2,0.5C12.5,39.9,12.3,40,12,40z"/>
	<path fill="#FFFFFF" d="M14.5,40c-0.1,0-0.3,0-0.4-0.1c-0.1,0-0.2-0.1-0.3-0.2c-0.1-0.1-0.2-0.2-0.2-0.4c0-0.2-0.1-0.4-0.1-0.6
		c0-0.2,0-0.4,0.1-0.6c0-0.2,0.1-0.3,0.2-0.4c0.1-0.1,0.2-0.2,0.3-0.2c0.1,0,0.2-0.1,0.4-0.1c0.2,0,0.3,0,0.4,0.1
		c0.1,0,0.2,0.1,0.3,0.2L15,37.9c-0.1-0.1-0.1-0.1-0.2-0.2c-0.1,0-0.2-0.1-0.3-0.1c-0.1,0-0.2,0-0.3,0c-0.1,0-0.1,0.1-0.2,0.2
		C14,38,14,38.1,13.9,38.2c0,0.1,0,0.3,0,0.5c0,0.2,0,0.4,0,0.5c0,0.1,0.1,0.2,0.1,0.3c0.1,0.1,0.1,0.1,0.2,0.2c0.1,0,0.2,0,0.3,0
		c0.1,0,0.2,0,0.3-0.1c0.1-0.1,0.1-0.1,0.2-0.2l0.2,0.2c-0.1,0.1-0.2,0.2-0.3,0.2C14.9,39.9,14.7,40,14.5,40z"/>
	<path fill="#FFFFFF" d="M16.1,36.2h0.3v1.6c0.1-0.1,0.2-0.2,0.4-0.3c0.1-0.1,0.3-0.1,0.4-0.1c0.2,0,0.3,0.1,0.4,0.2
		c0.1,0.1,0.2,0.3,0.2,0.5v1.9h-0.3v-1.8c0-0.2,0-0.3-0.1-0.3c-0.1-0.1-0.2-0.1-0.3-0.1c-0.1,0-0.2,0-0.4,0.1
		c-0.1,0.1-0.2,0.2-0.3,0.3v1.9h-0.3C16.1,39.9,16.1,36.2,16.1,36.2z"/>
	<path fill="#FFFFFF" d="M19.4,40c-0.2,0-0.3-0.1-0.4-0.2c-0.1-0.1-0.2-0.3-0.2-0.5v-1.9h0.3v1.8c0,0.2,0,0.3,0.1,0.4
		c0.1,0.1,0.2,0.1,0.3,0.1c0.1,0,0.2,0,0.4-0.1c0.1-0.1,0.2-0.1,0.3-0.2v-1.9h0.3v2.5h-0.2l-0.1-0.3c-0.1,0.1-0.2,0.2-0.4,0.3
		C19.7,39.9,19.5,40,19.4,40z"/>
	<path fill="#FFFFFF" d="M21.9,40c-0.1,0-0.2,0-0.3-0.1c-0.1-0.1-0.1-0.2-0.1-0.4v-3.2h0.3v3.3c0,0.1,0,0.1,0,0.2c0,0,0.1,0,0.1,0
		c0,0,0.1,0,0.1,0l0.1,0.2c0,0-0.1,0-0.1,0C22,40,22,40,21.9,40z"/>
	<path fill="#FFFFFF" d="M23.1,38.7c0,0.2,0,0.3,0,0.5c0,0.1,0.1,0.2,0.1,0.3s0.1,0.1,0.2,0.2c0.1,0,0.2,0,0.3,0
		c0.1,0,0.3,0,0.4-0.1s0.2-0.1,0.3-0.2l0.2,0.2c-0.1,0.1-0.2,0.2-0.3,0.2c-0.1,0-0.3,0.1-0.4,0.1c-0.1,0-0.3,0-0.4-0.1
		c-0.1,0-0.2-0.1-0.3-0.2c-0.1-0.1-0.2-0.2-0.2-0.4c0-0.2-0.1-0.4-0.1-0.6c0-0.2,0-0.4,0.1-0.6c0-0.2,0.1-0.3,0.2-0.4
		c0.1-0.1,0.2-0.2,0.3-0.2c0.1,0,0.2-0.1,0.4-0.1c0.3,0,0.5,0.1,0.7,0.3c0.1,0.2,0.2,0.5,0.2,0.9v0.1C24.6,38.7,23.1,38.7,23.1,38.7
		z M24.3,38.5c0-0.2,0-0.3,0-0.4c0-0.1-0.1-0.2-0.1-0.3c0-0.1-0.1-0.1-0.2-0.1s-0.2,0-0.2,0c-0.1,0-0.2,0-0.2,0
		c-0.1,0-0.1,0.1-0.2,0.1c-0.1,0.1-0.1,0.2-0.1,0.3c0,0.1-0.1,0.2-0.1,0.4H24.3z"/>
	<path fill="#FFFFFF" d="M26.9,36.4h0.3v1.5h1.5v-1.5H29v3.5h-0.3v-1.7h-1.5v1.7h-0.3V36.4z"/>
	<path fill="#FFFFFF" d="M31.3,38.2c0-0.2,0-0.3-0.1-0.4c-0.1-0.1-0.2-0.1-0.3-0.1c-0.1,0-0.3,0-0.4,0.1c-0.1,0-0.2,0.1-0.4,0.2
		l-0.1-0.2c0.1-0.1,0.2-0.1,0.4-0.2c0.1-0.1,0.3-0.1,0.5-0.1c0.2,0,0.4,0.1,0.5,0.2c0.1,0.1,0.2,0.3,0.2,0.5v1.8h-0.2l-0.1-0.3
		c0,0-0.1,0.1-0.1,0.1c0,0-0.1,0.1-0.2,0.1c-0.1,0-0.1,0.1-0.2,0.1c-0.1,0-0.1,0-0.2,0c-0.2,0-0.4-0.1-0.5-0.2
		c-0.1-0.1-0.2-0.3-0.2-0.6c0-0.3,0.1-0.5,0.3-0.6c0.2-0.1,0.4-0.2,0.8-0.2h0.3L31.3,38.2L31.3,38.2z M31.3,38.7H31
		c-0.2,0-0.3,0-0.4,0c-0.1,0-0.2,0.1-0.2,0.1s-0.1,0.1-0.1,0.2c0,0.1,0,0.2,0,0.3c0,0.2,0,0.3,0.1,0.4c0.1,0.1,0.2,0.1,0.3,0.1
		s0.3,0,0.4-0.1c0.1-0.1,0.2-0.2,0.3-0.2L31.3,38.7L31.3,38.7z"/>
	<path fill="#FFFFFF" d="M32.7,37.5h0.2l0.1,0.4c0.1-0.1,0.2-0.2,0.4-0.3c0.1-0.1,0.3-0.1,0.4-0.1c0.2,0,0.3,0.1,0.4,0.2
		c0.1,0.1,0.2,0.3,0.2,0.5v1.9h-0.3v-1.8c0-0.2,0-0.3-0.1-0.3c-0.1-0.1-0.2-0.1-0.3-0.1c-0.1,0-0.2,0-0.4,0.1
		c-0.1,0.1-0.2,0.2-0.3,0.3v1.9h-0.3L32.7,37.5L32.7,37.5z"/>
	<path fill="#FFFFFF" d="M35.4,37.5h0.2l0.1,0.4c0.1-0.1,0.2-0.2,0.4-0.3c0.1-0.1,0.3-0.1,0.4-0.1c0.2,0,0.3,0.1,0.4,0.2
		c0.1,0.1,0.2,0.3,0.2,0.5v1.9h-0.3v-1.8c0-0.2,0-0.3-0.1-0.3c-0.1-0.1-0.2-0.1-0.3-0.1c-0.1,0-0.2,0-0.4,0.1
		c-0.1,0.1-0.2,0.2-0.3,0.3v1.9h-0.3L35.4,37.5L35.4,37.5z"/>
	<path fill="#FFFFFF" d="M38.9,40c-0.1,0-0.3,0-0.4-0.1c-0.1,0-0.2-0.1-0.3-0.2c-0.1-0.1-0.2-0.2-0.2-0.4c0-0.2-0.1-0.4-0.1-0.6
		c0-0.2,0-0.4,0.1-0.6c0-0.2,0.1-0.3,0.2-0.4c0.1-0.1,0.2-0.2,0.3-0.2c0.1,0,0.2-0.1,0.4-0.1c0.1,0,0.3,0,0.4,0.1
		c0.1,0,0.2,0.1,0.3,0.2c0.1,0.1,0.2,0.2,0.2,0.4c0,0.2,0.1,0.4,0.1,0.6c0,0.2,0,0.4-0.1,0.6c0,0.2-0.1,0.3-0.2,0.4
		c-0.1,0.1-0.2,0.2-0.3,0.2C39.2,39.9,39.1,40,38.9,40z M38.9,39.7c0.1,0,0.2,0,0.3-0.1c0.1,0,0.2-0.1,0.2-0.2
		c0.1-0.1,0.1-0.2,0.1-0.3c0-0.1,0-0.3,0-0.5c0-0.2,0-0.4,0-0.5s-0.1-0.2-0.1-0.3s-0.1-0.1-0.2-0.2c-0.1,0-0.2-0.1-0.3-0.1
		c-0.1,0-0.2,0-0.3,0.1c-0.1,0-0.2,0.1-0.2,0.2s-0.1,0.2-0.1,0.3c0,0.1,0,0.3,0,0.5c0,0.2,0,0.4,0,0.5s0.1,0.2,0.1,0.3
		c0.1,0.1,0.1,0.1,0.2,0.2C38.7,39.7,38.8,39.7,38.9,39.7z"/>
	<path fill="#FFFFFF" d="M40.5,37.5h0.3l0.5,1.6c0,0.1,0.1,0.2,0.1,0.3c0,0.1,0,0.2,0.1,0.3h0c0-0.1,0-0.2,0.1-0.3
		c0-0.1,0.1-0.2,0.1-0.3l0.5-1.6h0.3l-0.8,2.5h-0.3L40.5,37.5z"/>
	<path fill="#FFFFFF" d="M43.4,38.7c0,0.2,0,0.3,0,0.5c0,0.1,0.1,0.2,0.1,0.3c0.1,0.1,0.1,0.1,0.2,0.2c0.1,0,0.2,0,0.3,0
		c0.1,0,0.3,0,0.4-0.1c0.1,0,0.2-0.1,0.3-0.2l0.2,0.2c-0.1,0.1-0.2,0.2-0.3,0.2c-0.1,0-0.3,0.1-0.4,0.1c-0.1,0-0.3,0-0.4-0.1
		c-0.1,0-0.2-0.1-0.3-0.2c-0.1-0.1-0.2-0.2-0.2-0.4c0-0.2-0.1-0.4-0.1-0.6c0-0.2,0-0.4,0.1-0.6c0-0.2,0.1-0.3,0.2-0.4
		c0.1-0.1,0.2-0.2,0.3-0.2c0.1,0,0.2-0.1,0.4-0.1c0.3,0,0.5,0.1,0.7,0.3c0.1,0.2,0.2,0.5,0.2,0.9v0.1C44.9,38.7,43.4,38.7,43.4,38.7
		z M44.6,38.5c0-0.2,0-0.3,0-0.4c0-0.1-0.1-0.2-0.1-0.3c0-0.1-0.1-0.1-0.2-0.1c-0.1,0-0.2,0-0.2,0c-0.1,0-0.2,0-0.2,0
		c-0.1,0-0.1,0.1-0.2,0.1c-0.1,0.1-0.1,0.2-0.1,0.3c0,0.1-0.1,0.2-0.1,0.4H44.6z"/>
	<path fill="#FFFFFF" d="M45.8,37.5H46l0.1,0.4c0.1-0.1,0.2-0.2,0.3-0.3s0.3-0.1,0.4-0.1c0,0,0,0,0,0c0,0,0,0,0,0l0,0.3
		c0,0-0.1,0-0.1,0c-0.1,0-0.2,0-0.3,0.1c-0.1,0.1-0.2,0.2-0.3,0.3v1.8h-0.3L45.8,37.5L45.8,37.5z"/>
</g>
</svg>
