<?xml version="1.0" encoding="utf-8"?>
<!-- Generator: Adobe Illustrator 17.1.0, SVG Export Plug-In . SVG Version: 6.00 Build 0)  -->
<!DOCTYPE svg PUBLIC "-//W3C//DTD SVG 1.1//EN" "http://www.w3.org/Graphics/SVG/1.1/DTD/svg11.dtd">
<svg version="1.1" id="Ebene_1" xmlns="http://www.w3.org/2000/svg" xmlns:xlink="http://www.w3.org/1999/xlink" x="0px" y="0px"
	 viewBox="0 0 100.208 65.007" enable-background="new 0 0 100.208 65.007" xml:space="preserve">
<g>
	<g>
		<path d="M1.008,11.524h4.724l0.623,2.803c1.107-1.003,2.24-1.834,3.4-2.492c1.159-0.657,2.483-0.986,3.971-0.986
			c1.315,0,2.448,0.268,3.4,0.804c0.952,0.537,1.669,1.394,2.154,2.57c1.142-1.003,2.31-1.817,3.504-2.44
			c1.194-0.623,2.518-0.934,3.971-0.934c1.903,0,3.417,0.511,4.542,1.531c1.124,1.021,1.687,2.76,1.687,5.217v20.193h-5.918V19.155
			c0-1.384-0.19-2.292-0.571-2.726c-0.381-0.432-1.021-0.649-1.921-0.649c-0.762,0-1.54,0.208-2.336,0.623
			c-0.796,0.416-1.557,0.935-2.284,1.557v19.83h-5.917V19.155c0-1.384-0.191-2.292-0.571-2.726c-0.381-0.432-1.021-0.649-1.92-0.649
			c-0.797,0-1.575,0.226-2.336,0.675c-0.762,0.45-1.523,1.004-2.284,1.661v19.674H1.008V11.524z"/>
	</g>
	<g>
		<path d="M48.298,38.466c-1.315,0-2.526-0.208-3.634-0.623c-1.108-0.415-2.059-1.142-2.855-2.18
			c-0.796-1.039-1.419-2.432-1.869-4.18c-0.45-1.747-0.675-3.952-0.675-6.618c0-2.596,0.182-4.793,0.545-6.593
			c0.363-1.799,0.908-3.244,1.635-4.334c0.727-1.09,1.643-1.877,2.751-2.362c1.107-0.484,2.422-0.727,3.945-0.727
			c1.419,0,2.673,0.294,3.764,0.882c1.09,0.589,1.999,1.229,2.725,1.92V0h5.918v37.791h-4.724l-0.675-2.596
			c-1.004,1.073-2.059,1.887-3.167,2.44C50.876,38.188,49.648,38.466,48.298,38.466z M49.648,33.586
			c1.072,0,1.999-0.182,2.777-0.545s1.514-0.891,2.206-1.583V17.857c-0.589-0.553-1.271-1.055-2.05-1.505
			c-0.779-0.45-1.635-0.675-2.57-0.675c-0.831,0-1.523,0.113-2.076,0.337c-0.554,0.225-1.004,0.667-1.35,1.324
			c-0.347,0.658-0.597,1.575-0.753,2.751c-0.156,1.177-0.233,2.7-0.233,4.568s0.069,3.383,0.208,4.542
			c0.138,1.159,0.363,2.068,0.675,2.725c0.312,0.658,0.727,1.1,1.246,1.324C48.247,33.475,48.886,33.586,49.648,33.586z"/>
	</g>
	<g>
		<path d="M68.232,11.524h4.724l0.623,2.803c1.106-1.003,2.24-1.834,3.399-2.492c1.159-0.657,2.483-0.986,3.972-0.986
			c1.314,0,2.448,0.268,3.4,0.804c0.951,0.537,1.669,1.394,2.154,2.57c1.142-1.003,2.31-1.817,3.504-2.44
			c1.193-0.623,2.518-0.934,3.971-0.934c1.903,0,3.417,0.511,4.542,1.531c1.125,1.021,1.688,2.76,1.688,5.217v20.193h-5.918V19.155
			c0-1.384-0.19-2.292-0.571-2.726c-0.381-0.432-1.021-0.649-1.92-0.649c-0.762,0-1.541,0.208-2.336,0.623
			c-0.797,0.416-1.558,0.935-2.284,1.557v19.83h-5.918V19.155c0-1.384-0.19-2.292-0.571-2.726c-0.381-0.432-1.021-0.649-1.921-0.649
			c-0.796,0-1.575,0.226-2.336,0.675c-0.762,0.45-1.523,1.004-2.284,1.661v19.674h-5.917V11.524z"/>
	</g>
</g>
<g>
	<path d="M1.012,43.354h0.981l1.374,3.967c0.09,0.262,0.164,0.506,0.222,0.733s0.095,0.417,0.108,0.568h0.021
		c0.007-0.076,0.015-0.153,0.026-0.232c0.01-0.079,0.025-0.169,0.046-0.269c0.021-0.1,0.05-0.216,0.088-0.347
		c0.038-0.13,0.087-0.282,0.149-0.454l1.395-3.967h0.971v7.097H5.743v-4.793c0-0.496,0.005-0.881,0.016-1.157
		c0.01-0.275,0.019-0.495,0.026-0.661h-0.01c-0.035,0.159-0.092,0.381-0.171,0.667c-0.079,0.285-0.191,0.628-0.335,1.027
		l-1.271,3.543h-0.63l-1.26-3.48c-0.076-0.214-0.138-0.399-0.186-0.559c-0.048-0.158-0.091-0.305-0.129-0.438
		c-0.038-0.135-0.07-0.262-0.098-0.382c-0.027-0.121-0.059-0.246-0.093-0.378h-0.01c0.007,0.263,0.016,0.536,0.026,0.821
		c0.01,0.286,0.015,0.618,0.015,0.997v4.793h-0.62V43.354z"/>
	<path d="M10.784,46.918c0-0.311-0.054-0.55-0.16-0.719c-0.107-0.168-0.326-0.253-0.656-0.253c-0.275,0-0.534,0.047-0.774,0.14
		c-0.241,0.093-0.475,0.212-0.703,0.356l-0.248-0.454c0.241-0.159,0.501-0.295,0.78-0.408c0.279-0.114,0.611-0.171,0.997-0.171
		c0.455,0,0.799,0.114,1.033,0.341c0.234,0.228,0.351,0.589,0.351,1.085v3.615H10.97l-0.155-0.599
		c-0.069,0.082-0.148,0.165-0.237,0.247c-0.09,0.083-0.193,0.157-0.31,0.223s-0.245,0.12-0.382,0.165S9.6,50.554,9.441,50.554
		c-0.454,0-0.809-0.128-1.063-0.383c-0.255-0.254-0.382-0.623-0.382-1.104c0-0.537,0.168-0.937,0.506-1.198s0.889-0.393,1.653-0.393
		h0.63V46.918z M10.784,47.95h-0.568c-0.31,0-0.566,0.021-0.77,0.062c-0.203,0.041-0.363,0.108-0.48,0.201s-0.2,0.21-0.248,0.352
		c-0.048,0.141-0.072,0.312-0.072,0.511c0,0.345,0.07,0.591,0.211,0.738c0.141,0.148,0.36,0.223,0.656,0.223
		c0.296,0,0.549-0.074,0.759-0.223c0.21-0.147,0.381-0.301,0.512-0.459V47.95z"/>
	<path d="M14.286,50.554c-0.331,0-0.634-0.054-0.909-0.16s-0.502-0.232-0.682-0.377l0.269-0.444c0.193,0.138,0.396,0.25,0.609,0.336
		s0.455,0.129,0.723,0.129c0.372,0,0.637-0.077,0.795-0.232c0.158-0.155,0.238-0.367,0.238-0.636c0-0.151-0.019-0.276-0.057-0.377
		c-0.038-0.1-0.1-0.189-0.186-0.269c-0.086-0.079-0.2-0.147-0.341-0.206s-0.318-0.122-0.532-0.191
		c-0.186-0.055-0.356-0.12-0.511-0.196c-0.155-0.075-0.29-0.17-0.403-0.284c-0.114-0.113-0.204-0.249-0.269-0.408
		c-0.066-0.158-0.098-0.348-0.098-0.567c0-0.173,0.029-0.336,0.087-0.491c0.059-0.154,0.148-0.289,0.269-0.402
		c0.121-0.114,0.272-0.203,0.455-0.269s0.398-0.099,0.646-0.099c0.303,0,0.56,0.033,0.77,0.099s0.401,0.146,0.574,0.242
		l-0.228,0.485c-0.179-0.096-0.351-0.17-0.517-0.222c-0.165-0.052-0.361-0.077-0.588-0.077c-0.283,0-0.5,0.059-0.651,0.175
		c-0.152,0.117-0.228,0.3-0.228,0.548c0,0.138,0.017,0.252,0.052,0.341c0.035,0.09,0.088,0.167,0.16,0.232s0.169,0.124,0.289,0.176
		c0.121,0.052,0.267,0.105,0.439,0.16c0.207,0.068,0.399,0.142,0.578,0.217c0.179,0.076,0.334,0.171,0.465,0.284
		s0.234,0.257,0.31,0.429c0.076,0.172,0.113,0.386,0.113,0.641c0,0.481-0.145,0.838-0.434,1.068
		C15.205,50.438,14.802,50.554,14.286,50.554z"/>
	<path d="M16.94,46.019v-0.506h0.599v-1.302l0.609-0.145v1.446h1.033v0.506h-1.033v3.574c0,0.303,0.138,0.454,0.414,0.454
		c0.13,0,0.243-0.015,0.335-0.046c0.093-0.031,0.174-0.063,0.243-0.099l0.155,0.455c-0.104,0.055-0.215,0.102-0.336,0.14
		c-0.121,0.037-0.263,0.057-0.429,0.057c-0.282,0-0.518-0.071-0.708-0.212c-0.189-0.142-0.284-0.381-0.284-0.718v-3.605H16.94z"/>
	<path d="M20.979,48.074c0.007,0.372,0.038,0.684,0.093,0.935c0.055,0.252,0.136,0.453,0.243,0.604s0.245,0.259,0.413,0.32
		c0.169,0.062,0.37,0.093,0.604,0.093c0.289,0,0.527-0.043,0.713-0.129c0.186-0.086,0.358-0.191,0.516-0.315l0.341,0.435
		c-0.214,0.172-0.443,0.305-0.687,0.397c-0.245,0.093-0.539,0.14-0.883,0.14c-0.296,0-0.566-0.045-0.811-0.135
		c-0.244-0.089-0.454-0.233-0.63-0.434c-0.176-0.199-0.313-0.463-0.413-0.79c-0.1-0.327-0.15-0.729-0.15-1.203
		c0-0.469,0.046-0.866,0.14-1.193c0.093-0.327,0.224-0.594,0.392-0.801c0.169-0.206,0.369-0.356,0.599-0.449
		c0.231-0.093,0.484-0.14,0.759-0.14c0.579,0,1.018,0.189,1.317,0.568c0.299,0.379,0.449,0.991,0.449,1.839v0.258H20.979z
		 M23.344,47.589c0-0.316-0.024-0.582-0.072-0.795c-0.048-0.214-0.119-0.386-0.212-0.517c-0.093-0.131-0.21-0.224-0.351-0.279
		c-0.141-0.055-0.308-0.082-0.501-0.082c-0.172,0-0.329,0.025-0.47,0.077c-0.142,0.052-0.265,0.143-0.372,0.273
		s-0.191,0.304-0.253,0.517c-0.062,0.214-0.104,0.482-0.124,0.806H23.344z"/>
	<path d="M25.503,45.513h0.434l0.145,0.837c0.207-0.255,0.434-0.47,0.682-0.646c0.248-0.176,0.52-0.264,0.816-0.264
		c0.027,0,0.059,0.002,0.093,0.005c0.035,0.004,0.055,0.009,0.062,0.016l-0.062,0.661c-0.041-0.021-0.113-0.031-0.217-0.031
		c-0.255,0-0.485,0.062-0.692,0.187s-0.42,0.307-0.641,0.547v3.626h-0.62V45.513z"/>
	<path d="M31.391,43.354h1.601c0.503,0,0.932,0.065,1.286,0.196s0.644,0.341,0.868,0.631c0.224,0.289,0.387,0.666,0.491,1.131
		s0.155,1.027,0.155,1.688c0,0.641-0.053,1.182-0.16,1.622c-0.106,0.44-0.272,0.797-0.496,1.069
		c-0.224,0.271-0.51,0.466-0.857,0.583s-0.766,0.176-1.255,0.176h-1.632V43.354z M33.064,49.893c0.399,0,0.73-0.054,0.992-0.16
		s0.47-0.277,0.625-0.512c0.155-0.233,0.264-0.535,0.326-0.903c0.062-0.368,0.093-0.817,0.093-1.349
		c0-0.551-0.029-1.021-0.088-1.409c-0.059-0.39-0.164-0.706-0.315-0.951c-0.151-0.244-0.36-0.423-0.625-0.537
		c-0.265-0.113-0.601-0.17-1.007-0.17h-1.022v5.991H33.064z"/>
	<path d="M37.744,48.074c0.007,0.372,0.038,0.684,0.093,0.935c0.055,0.252,0.136,0.453,0.243,0.604s0.245,0.259,0.413,0.32
		c0.169,0.062,0.37,0.093,0.604,0.093c0.289,0,0.527-0.043,0.713-0.129c0.186-0.086,0.358-0.191,0.516-0.315l0.341,0.435
		c-0.214,0.172-0.443,0.305-0.687,0.397c-0.245,0.093-0.539,0.14-0.883,0.14c-0.296,0-0.566-0.045-0.811-0.135
		c-0.244-0.089-0.454-0.233-0.63-0.434c-0.176-0.199-0.313-0.463-0.413-0.79c-0.1-0.327-0.15-0.729-0.15-1.203
		c0-0.469,0.046-0.866,0.14-1.193c0.093-0.327,0.224-0.594,0.392-0.801c0.169-0.206,0.369-0.356,0.599-0.449
		c0.231-0.093,0.484-0.14,0.759-0.14c0.579,0,1.018,0.189,1.317,0.568c0.299,0.379,0.449,0.991,0.449,1.839v0.258H37.744z
		 M40.109,47.589c0-0.316-0.024-0.582-0.072-0.795c-0.048-0.214-0.119-0.386-0.212-0.517c-0.093-0.131-0.21-0.224-0.351-0.279
		c-0.141-0.055-0.308-0.082-0.501-0.082c-0.172,0-0.329,0.025-0.47,0.077c-0.142,0.052-0.265,0.143-0.372,0.273
		s-0.191,0.304-0.253,0.517c-0.062,0.214-0.104,0.482-0.124,0.806H40.109z"/>
	<path d="M43.342,50.554c-0.331,0-0.634-0.054-0.909-0.16s-0.502-0.232-0.682-0.377l0.269-0.444c0.193,0.138,0.396,0.25,0.609,0.336
		s0.455,0.129,0.723,0.129c0.372,0,0.637-0.077,0.795-0.232c0.158-0.155,0.238-0.367,0.238-0.636c0-0.151-0.019-0.276-0.057-0.377
		c-0.038-0.1-0.1-0.189-0.186-0.269c-0.086-0.079-0.2-0.147-0.341-0.206s-0.318-0.122-0.532-0.191
		c-0.186-0.055-0.356-0.12-0.511-0.196c-0.155-0.075-0.29-0.17-0.403-0.284c-0.114-0.113-0.204-0.249-0.269-0.408
		c-0.066-0.158-0.098-0.348-0.098-0.567c0-0.173,0.029-0.336,0.087-0.491c0.059-0.154,0.148-0.289,0.269-0.402
		c0.121-0.114,0.272-0.203,0.455-0.269s0.398-0.099,0.646-0.099c0.303,0,0.56,0.033,0.77,0.099s0.401,0.146,0.574,0.242
		l-0.228,0.485c-0.179-0.096-0.351-0.17-0.517-0.222c-0.165-0.052-0.361-0.077-0.588-0.077c-0.283,0-0.5,0.059-0.651,0.175
		c-0.152,0.117-0.228,0.3-0.228,0.548c0,0.138,0.017,0.252,0.052,0.341c0.035,0.09,0.088,0.167,0.16,0.232s0.169,0.124,0.289,0.176
		c0.121,0.052,0.267,0.105,0.439,0.16c0.207,0.068,0.399,0.142,0.578,0.217c0.179,0.076,0.334,0.171,0.465,0.284
		s0.234,0.257,0.31,0.429c0.076,0.172,0.113,0.386,0.113,0.641c0,0.481-0.145,0.838-0.434,1.068
		C44.261,50.438,43.858,50.554,43.342,50.554z"/>
	<path d="M46.792,45.998l-0.702-0.093v-0.393h1.322v4.938h-0.62V45.998z M47.04,44.376c-0.138,0-0.25-0.044-0.336-0.134
		c-0.086-0.09-0.129-0.203-0.129-0.341s0.043-0.253,0.129-0.346c0.086-0.094,0.198-0.14,0.336-0.14s0.251,0.046,0.341,0.14
		c0.089,0.093,0.134,0.208,0.134,0.346s-0.045,0.251-0.134,0.341S47.177,44.376,47.04,44.376z"/>
	<path d="M52.855,45.513v0.382l-0.733,0.124c0.2,0.275,0.3,0.603,0.3,0.981c0,0.517-0.155,0.907-0.465,1.173
		c-0.31,0.265-0.713,0.397-1.208,0.397c-0.255,0-0.482-0.034-0.682-0.104c-0.096,0.097-0.182,0.212-0.258,0.346
		c-0.076,0.135-0.114,0.271-0.114,0.408c0,0.097,0.031,0.176,0.093,0.238c0.062,0.062,0.172,0.093,0.331,0.093h0.992
		c0.53,0,0.94,0.117,1.229,0.351c0.29,0.234,0.434,0.586,0.434,1.054c0,0.503-0.172,0.899-0.517,1.188s-0.851,0.434-1.519,0.434
		c-0.661,0-1.146-0.129-1.456-0.388c-0.31-0.258-0.465-0.59-0.465-0.996c0-0.29,0.072-0.525,0.217-0.708s0.31-0.339,0.496-0.47
		c-0.275-0.131-0.413-0.354-0.413-0.672c0-0.241,0.06-0.444,0.181-0.609s0.253-0.31,0.398-0.434c-0.2-0.131-0.358-0.305-0.475-0.521
		c-0.117-0.217-0.176-0.477-0.176-0.78c0-0.517,0.158-0.91,0.475-1.183c0.317-0.271,0.727-0.408,1.229-0.408
		c0.13,0,0.251,0.009,0.361,0.026c0.11,0.017,0.213,0.043,0.31,0.077H52.855z M49.973,50.13c-0.159,0.117-0.288,0.257-0.387,0.418
		c-0.1,0.162-0.15,0.363-0.15,0.604c0,0.138,0.019,0.264,0.057,0.377c0.038,0.114,0.107,0.212,0.207,0.295
		c0.1,0.082,0.232,0.146,0.398,0.19c0.165,0.045,0.375,0.067,0.63,0.067c0.943,0,1.415-0.372,1.415-1.115
		c0-0.558-0.32-0.837-0.96-0.837H49.973z M50.727,48.105c0.331,0,0.59-0.088,0.78-0.264s0.284-0.463,0.284-0.862
		c0-0.406-0.091-0.687-0.273-0.842c-0.183-0.155-0.443-0.232-0.78-0.232c-0.324,0-0.582,0.084-0.774,0.253s-0.289,0.456-0.289,0.862
		c0,0.399,0.098,0.681,0.294,0.842C50.164,48.024,50.417,48.105,50.727,48.105z"/>
	<path d="M54.095,45.513h0.434l0.145,0.713c0.241-0.241,0.493-0.438,0.754-0.589s0.547-0.228,0.857-0.228
		c0.351,0,0.642,0.104,0.873,0.311c0.231,0.206,0.346,0.526,0.346,0.96v3.771h-0.62v-3.605c0-0.33-0.061-0.561-0.181-0.691
		s-0.308-0.196-0.563-0.196c-0.248,0-0.492,0.068-0.733,0.206c-0.241,0.139-0.472,0.307-0.692,0.507v3.78h-0.62V45.513z"/>
	<path d="M65.499,48.519c0.192-0.503,0.337-1.102,0.434-1.797l0.589,0.051c-0.055,0.455-0.133,0.868-0.232,1.24
		s-0.222,0.702-0.366,0.991l1.219,1.446h-0.806l-0.754-0.889c-0.503,0.682-1.185,1.023-2.046,1.023
		c-0.399,0-0.738-0.058-1.018-0.171c-0.278-0.113-0.504-0.264-0.676-0.449c-0.173-0.187-0.297-0.399-0.372-0.641
		c-0.076-0.241-0.114-0.492-0.114-0.754c0-0.53,0.137-0.964,0.408-1.302c0.272-0.337,0.656-0.63,1.152-0.878l-0.083-0.093
		c-0.241-0.289-0.433-0.558-0.573-0.806c-0.142-0.248-0.212-0.52-0.212-0.816c0-0.42,0.142-0.761,0.424-1.022
		s0.671-0.393,1.167-0.393c0.221,0,0.425,0.031,0.614,0.093c0.189,0.062,0.354,0.155,0.491,0.279s0.246,0.279,0.325,0.465
		s0.119,0.402,0.119,0.65c0,0.372-0.117,0.696-0.352,0.972s-0.582,0.533-1.043,0.774L65.499,48.519z M63.226,46.772
		c-0.393,0.207-0.687,0.453-0.883,0.739c-0.196,0.285-0.295,0.639-0.295,1.059c0,0.206,0.024,0.399,0.072,0.578
		c0.048,0.18,0.129,0.338,0.243,0.476c0.113,0.138,0.269,0.246,0.465,0.325s0.438,0.119,0.728,0.119
		c0.365,0,0.683-0.081,0.951-0.243s0.499-0.397,0.691-0.707L63.226,46.772z M63.484,46.133c0.379-0.214,0.647-0.424,0.806-0.631
		c0.159-0.206,0.238-0.454,0.238-0.743c0-0.661-0.293-0.992-0.878-0.992c-0.304,0-0.537,0.083-0.703,0.248
		c-0.165,0.166-0.247,0.383-0.247,0.651c0,0.233,0.053,0.447,0.159,0.64c0.107,0.193,0.25,0.39,0.429,0.589L63.484,46.133z"/>
	<path d="M70.746,43.354h0.98L73.1,47.32c0.09,0.262,0.164,0.506,0.223,0.733c0.058,0.228,0.094,0.417,0.108,0.568h0.021
		c0.007-0.076,0.016-0.153,0.025-0.232c0.011-0.079,0.026-0.169,0.047-0.269s0.05-0.216,0.088-0.347
		c0.037-0.13,0.088-0.282,0.149-0.454l1.395-3.967h0.971v7.097h-0.65v-4.793c0-0.496,0.005-0.881,0.016-1.157
		c0.01-0.275,0.019-0.495,0.025-0.661h-0.01c-0.035,0.159-0.092,0.381-0.171,0.667c-0.079,0.285-0.19,0.628-0.336,1.027
		l-1.271,3.543H73.1l-1.26-3.48c-0.076-0.214-0.138-0.399-0.187-0.559c-0.048-0.158-0.091-0.305-0.129-0.438
		c-0.038-0.135-0.07-0.262-0.098-0.382c-0.028-0.121-0.059-0.246-0.094-0.378h-0.01c0.007,0.263,0.016,0.536,0.025,0.821
		c0.011,0.286,0.016,0.618,0.016,0.997v4.793h-0.619V43.354z"/>
	<path d="M78.389,48.074c0.007,0.372,0.038,0.684,0.093,0.935c0.055,0.252,0.136,0.453,0.243,0.604
		c0.106,0.151,0.244,0.259,0.413,0.32c0.168,0.062,0.37,0.093,0.604,0.093c0.289,0,0.526-0.043,0.712-0.129
		c0.187-0.086,0.358-0.191,0.517-0.315l0.341,0.435c-0.213,0.172-0.442,0.305-0.687,0.397c-0.245,0.093-0.539,0.14-0.883,0.14
		c-0.297,0-0.567-0.045-0.812-0.135c-0.244-0.089-0.454-0.233-0.63-0.434c-0.176-0.199-0.313-0.463-0.413-0.79
		s-0.15-0.729-0.15-1.203c0-0.469,0.047-0.866,0.14-1.193s0.224-0.594,0.393-0.801c0.169-0.206,0.368-0.356,0.6-0.449
		c0.23-0.093,0.483-0.14,0.759-0.14c0.578,0,1.018,0.189,1.317,0.568s0.449,0.991,0.449,1.839v0.258H78.389z M80.754,47.589
		c0-0.316-0.024-0.582-0.072-0.795c-0.048-0.214-0.119-0.386-0.212-0.517s-0.21-0.224-0.351-0.279
		c-0.142-0.055-0.309-0.082-0.501-0.082c-0.173,0-0.329,0.025-0.471,0.077c-0.141,0.052-0.265,0.143-0.371,0.273
		c-0.107,0.131-0.191,0.304-0.254,0.517c-0.062,0.214-0.103,0.482-0.124,0.806H80.754z"/>
	<path d="M84.307,50.554c-0.248,0-0.475-0.045-0.682-0.135c-0.206-0.089-0.382-0.235-0.526-0.438s-0.259-0.469-0.341-0.796
		c-0.083-0.327-0.124-0.728-0.124-1.203c0-0.896,0.145-1.548,0.434-1.957c0.289-0.41,0.713-0.615,1.271-0.615
		c0.31,0,0.582,0.072,0.816,0.217c0.233,0.145,0.43,0.3,0.589,0.465v-3.026h0.609v7.386h-0.435l-0.145-0.63
		c-0.186,0.199-0.402,0.372-0.65,0.517S84.603,50.554,84.307,50.554z M84.401,50.017c0.282,0,0.529-0.067,0.743-0.202
		c0.214-0.134,0.413-0.287,0.6-0.459v-2.769c-0.18-0.186-0.376-0.339-0.589-0.46c-0.214-0.12-0.448-0.181-0.703-0.181
		c-0.192,0-0.363,0.031-0.511,0.093c-0.148,0.062-0.271,0.171-0.367,0.326c-0.096,0.154-0.17,0.359-0.222,0.614
		s-0.077,0.571-0.077,0.95c0,0.413,0.023,0.754,0.072,1.022c0.048,0.269,0.118,0.482,0.211,0.641
		c0.094,0.158,0.21,0.269,0.352,0.331C84.051,49.985,84.214,50.017,84.401,50.017z"/>
	<path d="M88.501,45.998l-0.702-0.093v-0.393h1.322v4.938h-0.62V45.998z M88.75,44.376c-0.138,0-0.25-0.044-0.336-0.134
		s-0.129-0.203-0.129-0.341s0.043-0.253,0.129-0.346c0.086-0.094,0.198-0.14,0.336-0.14s0.251,0.046,0.341,0.14
		c0.09,0.093,0.135,0.208,0.135,0.346s-0.045,0.251-0.135,0.341S88.887,44.376,88.75,44.376z"/>
	<path d="M91.332,48.074c0.007,0.372,0.038,0.684,0.093,0.935c0.055,0.252,0.136,0.453,0.243,0.604
		c0.106,0.151,0.244,0.259,0.413,0.32c0.168,0.062,0.37,0.093,0.604,0.093c0.289,0,0.526-0.043,0.712-0.129
		c0.187-0.086,0.358-0.191,0.517-0.315l0.341,0.435c-0.213,0.172-0.442,0.305-0.687,0.397c-0.245,0.093-0.539,0.14-0.883,0.14
		c-0.297,0-0.567-0.045-0.812-0.135c-0.244-0.089-0.454-0.233-0.63-0.434c-0.176-0.199-0.313-0.463-0.413-0.79
		s-0.15-0.729-0.15-1.203c0-0.469,0.047-0.866,0.14-1.193s0.224-0.594,0.393-0.801c0.169-0.206,0.368-0.356,0.6-0.449
		c0.23-0.093,0.483-0.14,0.759-0.14c0.578,0,1.018,0.189,1.317,0.568s0.449,0.991,0.449,1.839v0.258H91.332z M93.697,47.589
		c0-0.316-0.024-0.582-0.072-0.795c-0.048-0.214-0.119-0.386-0.212-0.517s-0.21-0.224-0.351-0.279
		c-0.142-0.055-0.309-0.082-0.501-0.082c-0.173,0-0.329,0.025-0.471,0.077c-0.141,0.052-0.265,0.143-0.371,0.273
		c-0.107,0.131-0.191,0.304-0.254,0.517c-0.062,0.214-0.103,0.482-0.124,0.806H93.697z"/>
	<path d="M95.856,45.513h0.435l0.145,0.713c0.24-0.241,0.492-0.438,0.754-0.589s0.547-0.228,0.857-0.228
		c0.351,0,0.642,0.104,0.873,0.311c0.23,0.206,0.346,0.526,0.346,0.96v3.771h-0.62v-3.605c0-0.33-0.061-0.561-0.181-0.691
		s-0.308-0.196-0.562-0.196c-0.248,0-0.493,0.068-0.733,0.206c-0.241,0.139-0.472,0.307-0.692,0.507v3.78h-0.62V45.513z"/>
</g>
<g>
	<path d="M1.012,55.308h0.651v3.027h2.954v-3.027h0.661v7.097H4.617v-3.502H1.663v3.502H1.012V55.308z"/>
	<path d="M9.121,62.508c-0.29,0-0.555-0.049-0.795-0.145c-0.241-0.097-0.45-0.248-0.625-0.455c-0.176-0.206-0.312-0.472-0.408-0.795
		c-0.097-0.324-0.145-0.713-0.145-1.167c0-0.462,0.048-0.856,0.145-1.184c0.096-0.326,0.23-0.594,0.403-0.8
		c0.172-0.207,0.377-0.358,0.615-0.455c0.237-0.096,0.501-0.145,0.79-0.145c0.282,0,0.546,0.049,0.791,0.145
		c0.244,0.097,0.454,0.248,0.63,0.455c0.176,0.206,0.313,0.472,0.413,0.795c0.1,0.324,0.15,0.717,0.15,1.178
		c0,0.454-0.048,0.846-0.145,1.173c-0.097,0.327-0.231,0.594-0.403,0.8c-0.172,0.207-0.379,0.358-0.62,0.455
		C9.675,62.459,9.41,62.508,9.121,62.508z M9.121,62.012c0.213,0,0.403-0.034,0.568-0.104c0.166-0.068,0.303-0.182,0.413-0.341
		c0.11-0.158,0.193-0.37,0.248-0.635c0.055-0.266,0.083-0.591,0.083-0.977c0-0.393-0.029-0.721-0.088-0.986
		c-0.059-0.265-0.143-0.48-0.253-0.646s-0.248-0.284-0.413-0.356c-0.166-0.072-0.355-0.108-0.568-0.108s-0.403,0.034-0.568,0.104
		c-0.166,0.068-0.303,0.184-0.413,0.346c-0.11,0.162-0.193,0.374-0.248,0.636s-0.083,0.588-0.083,0.98s0.029,0.722,0.088,0.987
		c0.058,0.265,0.143,0.479,0.253,0.64c0.11,0.162,0.248,0.279,0.413,0.352C8.718,61.976,8.907,62.012,9.121,62.012z"/>
	<path d="M14.482,62.508c-0.283,0-0.542-0.047-0.78-0.14c-0.238-0.093-0.443-0.243-0.615-0.449
		c-0.172-0.207-0.305-0.472-0.397-0.796c-0.093-0.323-0.14-0.716-0.14-1.177c0-0.469,0.048-0.866,0.145-1.193
		c0.096-0.327,0.229-0.594,0.398-0.801c0.168-0.206,0.372-0.356,0.609-0.449c0.237-0.093,0.497-0.14,0.78-0.14
		c0.31,0,0.571,0.05,0.785,0.15c0.213,0.1,0.413,0.242,0.599,0.429l-0.372,0.423c-0.145-0.158-0.293-0.277-0.444-0.356
		s-0.348-0.118-0.588-0.118c-0.207,0-0.388,0.032-0.542,0.098s-0.286,0.176-0.393,0.331c-0.107,0.154-0.188,0.363-0.243,0.625
		s-0.083,0.588-0.083,0.98s0.027,0.722,0.083,0.987c0.055,0.265,0.136,0.477,0.243,0.635s0.243,0.271,0.408,0.336
		c0.165,0.065,0.358,0.098,0.578,0.098c0.262,0,0.472-0.052,0.63-0.154c0.158-0.104,0.296-0.217,0.413-0.341l0.403,0.382
		c-0.165,0.186-0.365,0.339-0.599,0.46C15.125,62.447,14.833,62.508,14.482,62.508z"/>
	<path d="M17.56,55.019h0.62v3.12c0.241-0.228,0.485-0.414,0.733-0.559s0.527-0.217,0.837-0.217c0.351,0,0.642,0.104,0.873,0.311
		c0.231,0.206,0.346,0.526,0.346,0.96v3.771h-0.62v-3.605c0-0.33-0.061-0.561-0.181-0.691s-0.308-0.196-0.563-0.196
		c-0.248,0-0.492,0.068-0.733,0.206c-0.241,0.139-0.472,0.307-0.692,0.507v3.78h-0.62V55.019z"/>
	<path d="M24.098,62.508c-0.331,0-0.634-0.054-0.909-0.16s-0.502-0.232-0.682-0.377l0.269-0.444c0.193,0.138,0.396,0.25,0.609,0.336
		s0.455,0.129,0.723,0.129c0.372,0,0.637-0.077,0.795-0.232c0.158-0.155,0.238-0.367,0.238-0.636c0-0.151-0.019-0.276-0.057-0.377
		c-0.038-0.1-0.1-0.189-0.186-0.269c-0.086-0.079-0.2-0.147-0.341-0.206s-0.318-0.122-0.532-0.191
		c-0.186-0.055-0.356-0.12-0.511-0.196c-0.155-0.075-0.29-0.17-0.403-0.284c-0.114-0.113-0.204-0.249-0.269-0.408
		c-0.066-0.158-0.098-0.348-0.098-0.567c0-0.173,0.029-0.336,0.087-0.491c0.059-0.154,0.148-0.289,0.269-0.402
		c0.121-0.114,0.272-0.203,0.455-0.269s0.398-0.099,0.646-0.099c0.303,0,0.56,0.033,0.77,0.099s0.401,0.146,0.574,0.242
		l-0.228,0.485c-0.179-0.096-0.351-0.17-0.517-0.222c-0.165-0.052-0.361-0.077-0.588-0.077c-0.283,0-0.5,0.059-0.651,0.175
		c-0.152,0.117-0.228,0.3-0.228,0.548c0,0.138,0.017,0.252,0.052,0.341c0.035,0.09,0.088,0.167,0.16,0.232s0.169,0.124,0.289,0.176
		c0.121,0.052,0.267,0.105,0.439,0.16c0.207,0.068,0.399,0.142,0.578,0.217c0.179,0.076,0.334,0.171,0.465,0.284
		s0.234,0.257,0.31,0.429c0.076,0.172,0.113,0.386,0.113,0.641c0,0.481-0.145,0.838-0.434,1.068
		C25.018,62.393,24.615,62.508,24.098,62.508z"/>
	<path d="M29.118,62.508c-0.283,0-0.542-0.047-0.78-0.14c-0.238-0.093-0.443-0.243-0.615-0.449
		c-0.172-0.207-0.305-0.472-0.397-0.796c-0.093-0.323-0.14-0.716-0.14-1.177c0-0.469,0.048-0.866,0.145-1.193
		c0.096-0.327,0.229-0.594,0.398-0.801c0.168-0.206,0.372-0.356,0.609-0.449c0.237-0.093,0.497-0.14,0.78-0.14
		c0.31,0,0.571,0.05,0.785,0.15c0.213,0.1,0.413,0.242,0.599,0.429l-0.372,0.423c-0.145-0.158-0.293-0.277-0.444-0.356
		s-0.348-0.118-0.588-0.118c-0.207,0-0.388,0.032-0.542,0.098s-0.286,0.176-0.393,0.331c-0.107,0.154-0.188,0.363-0.243,0.625
		s-0.083,0.588-0.083,0.98s0.027,0.722,0.083,0.987c0.055,0.265,0.136,0.477,0.243,0.635s0.243,0.271,0.408,0.336
		c0.165,0.065,0.358,0.098,0.578,0.098c0.262,0,0.472-0.052,0.63-0.154c0.158-0.104,0.296-0.217,0.413-0.341l0.403,0.382
		c-0.165,0.186-0.365,0.339-0.599,0.46C29.762,62.447,29.469,62.508,29.118,62.508z"/>
	<path d="M32.196,55.019h0.62v3.12c0.241-0.228,0.485-0.414,0.733-0.559s0.527-0.217,0.837-0.217c0.351,0,0.642,0.104,0.873,0.311
		c0.231,0.206,0.346,0.526,0.346,0.96v3.771h-0.62v-3.605c0-0.33-0.061-0.561-0.181-0.691s-0.308-0.196-0.563-0.196
		c-0.248,0-0.492,0.068-0.733,0.206c-0.241,0.139-0.472,0.307-0.692,0.507v3.78h-0.62V55.019z"/>
	<path d="M38.869,62.508c-0.358,0-0.656-0.106-0.894-0.32s-0.356-0.541-0.356-0.981v-3.739h0.609v3.574
		c0,0.337,0.065,0.575,0.196,0.713s0.32,0.206,0.568,0.206c0.248,0,0.491-0.063,0.728-0.191c0.238-0.127,0.47-0.283,0.697-0.47
		v-3.832h0.62v4.938h-0.444l-0.145-0.661c-0.234,0.221-0.479,0.403-0.733,0.548C39.461,62.436,39.179,62.508,38.869,62.508z"/>
	<path d="M43.961,62.487c-0.241,0-0.436-0.071-0.583-0.212c-0.148-0.142-0.222-0.395-0.222-0.76v-6.497h0.62v6.56
		c0,0.158,0.029,0.265,0.088,0.32c0.059,0.055,0.146,0.082,0.263,0.082c0.083,0,0.155-0.01,0.217-0.03l0.103,0.443
		c-0.069,0.028-0.145,0.05-0.227,0.067S44.051,62.487,43.961,62.487z"/>
	<path d="M46.348,60.028c0.007,0.372,0.038,0.684,0.093,0.935c0.055,0.252,0.136,0.453,0.243,0.604s0.245,0.259,0.413,0.32
		c0.169,0.062,0.37,0.093,0.604,0.093c0.289,0,0.527-0.043,0.713-0.129c0.186-0.086,0.358-0.191,0.516-0.315l0.341,0.435
		c-0.214,0.172-0.443,0.305-0.687,0.397c-0.245,0.093-0.539,0.14-0.883,0.14c-0.296,0-0.566-0.045-0.811-0.135
		c-0.244-0.089-0.454-0.233-0.63-0.434c-0.176-0.199-0.313-0.463-0.413-0.79c-0.1-0.327-0.15-0.729-0.15-1.203
		c0-0.469,0.046-0.866,0.14-1.193c0.093-0.327,0.224-0.594,0.392-0.801c0.169-0.206,0.369-0.356,0.599-0.449
		c0.231-0.093,0.484-0.14,0.759-0.14c0.579,0,1.018,0.189,1.317,0.568c0.299,0.379,0.449,0.991,0.449,1.839v0.258H46.348z
		 M48.713,59.543c0-0.316-0.024-0.582-0.072-0.795c-0.048-0.214-0.119-0.386-0.212-0.517c-0.093-0.131-0.21-0.224-0.351-0.279
		c-0.141-0.055-0.308-0.082-0.501-0.082c-0.172,0-0.329,0.025-0.47,0.077c-0.142,0.052-0.265,0.143-0.372,0.273
		s-0.191,0.304-0.253,0.517c-0.062,0.214-0.104,0.482-0.124,0.806H48.713z"/>
	<path d="M53.857,55.308h0.651v3.027h2.954v-3.027h0.661v7.097h-0.661v-3.502h-2.954v3.502h-0.651V55.308z"/>
	<path d="M62.771,58.872c0-0.311-0.054-0.55-0.16-0.719c-0.107-0.168-0.325-0.253-0.656-0.253c-0.275,0-0.533,0.047-0.774,0.14
		s-0.476,0.212-0.702,0.356l-0.248-0.454c0.241-0.159,0.501-0.295,0.779-0.408c0.279-0.114,0.611-0.171,0.997-0.171
		c0.454,0,0.799,0.114,1.033,0.341c0.233,0.228,0.351,0.589,0.351,1.085v3.615h-0.434l-0.154-0.599
		c-0.069,0.082-0.148,0.165-0.238,0.247c-0.089,0.083-0.192,0.157-0.31,0.223s-0.244,0.12-0.382,0.165
		c-0.139,0.045-0.286,0.067-0.444,0.067c-0.455,0-0.81-0.128-1.064-0.383c-0.255-0.254-0.382-0.623-0.382-1.104
		c0-0.537,0.169-0.937,0.506-1.198c0.338-0.262,0.889-0.393,1.653-0.393h0.63V58.872z M62.771,59.904h-0.568
		c-0.31,0-0.566,0.021-0.77,0.062c-0.203,0.041-0.363,0.108-0.48,0.201s-0.199,0.21-0.248,0.352
		c-0.048,0.141-0.072,0.312-0.072,0.511c0,0.345,0.071,0.591,0.212,0.738c0.142,0.148,0.36,0.223,0.656,0.223
		s0.549-0.074,0.759-0.223c0.21-0.147,0.381-0.301,0.512-0.459V59.904z"/>
	<path d="M65.457,57.467h0.435l0.145,0.713c0.24-0.241,0.492-0.438,0.754-0.589s0.547-0.228,0.857-0.228
		c0.351,0,0.642,0.104,0.873,0.311c0.23,0.206,0.346,0.526,0.346,0.96v3.771h-0.62v-3.605c0-0.33-0.061-0.561-0.181-0.691
		s-0.308-0.196-0.562-0.196c-0.248,0-0.493,0.068-0.733,0.206c-0.241,0.139-0.472,0.307-0.692,0.507v3.78h-0.62V57.467z"/>
	<path d="M70.92,57.467h0.435L71.5,58.18c0.24-0.241,0.492-0.438,0.754-0.589s0.547-0.228,0.857-0.228
		c0.351,0,0.642,0.104,0.873,0.311c0.23,0.206,0.346,0.526,0.346,0.96v3.771h-0.62v-3.605c0-0.33-0.061-0.561-0.181-0.691
		s-0.308-0.196-0.562-0.196c-0.248,0-0.493,0.068-0.733,0.206c-0.241,0.139-0.472,0.307-0.692,0.507v3.78h-0.62V57.467z"/>
	<path d="M78.039,62.508c-0.289,0-0.555-0.049-0.796-0.145c-0.241-0.097-0.449-0.248-0.625-0.455
		c-0.175-0.206-0.312-0.472-0.407-0.795c-0.097-0.324-0.146-0.713-0.146-1.167c0-0.462,0.049-0.856,0.146-1.184
		c0.096-0.326,0.23-0.594,0.402-0.8c0.172-0.207,0.377-0.358,0.614-0.455c0.238-0.096,0.501-0.145,0.791-0.145
		c0.282,0,0.545,0.049,0.79,0.145c0.244,0.097,0.454,0.248,0.63,0.455c0.176,0.206,0.313,0.472,0.413,0.795
		c0.1,0.324,0.149,0.717,0.149,1.178c0,0.454-0.048,0.846-0.145,1.173c-0.096,0.327-0.23,0.594-0.402,0.8
		c-0.172,0.207-0.379,0.358-0.62,0.455C78.592,62.459,78.328,62.508,78.039,62.508z M78.039,62.012c0.213,0,0.402-0.034,0.568-0.104
		c0.165-0.068,0.303-0.182,0.413-0.341c0.109-0.158,0.192-0.37,0.247-0.635c0.056-0.266,0.083-0.591,0.083-0.977
		c0-0.393-0.029-0.721-0.088-0.986c-0.059-0.265-0.143-0.48-0.253-0.646s-0.248-0.284-0.413-0.356s-0.354-0.108-0.568-0.108
		c-0.213,0-0.402,0.034-0.568,0.104c-0.165,0.068-0.303,0.184-0.413,0.346s-0.192,0.374-0.248,0.636
		c-0.055,0.262-0.082,0.588-0.082,0.98s0.029,0.722,0.088,0.987c0.059,0.265,0.143,0.479,0.253,0.64
		c0.11,0.162,0.248,0.279,0.413,0.352S77.825,62.012,78.039,62.012z"/>
	<path d="M81.199,57.467h0.661l0.981,3.119c0.069,0.214,0.131,0.441,0.187,0.682c0.055,0.241,0.1,0.441,0.134,0.6h0.011
		c0.027-0.158,0.07-0.358,0.129-0.6c0.059-0.24,0.122-0.471,0.191-0.691l0.971-3.109h0.641l-1.653,4.938h-0.63L81.199,57.467z"/>
	<path d="M86.942,60.028c0.007,0.372,0.038,0.684,0.093,0.935c0.055,0.252,0.136,0.453,0.243,0.604
		c0.106,0.151,0.244,0.259,0.413,0.32c0.168,0.062,0.37,0.093,0.604,0.093c0.289,0,0.526-0.043,0.712-0.129
		c0.187-0.086,0.358-0.191,0.517-0.315l0.341,0.435c-0.213,0.172-0.442,0.305-0.687,0.397c-0.245,0.093-0.539,0.14-0.883,0.14
		c-0.297,0-0.567-0.045-0.812-0.135c-0.244-0.089-0.454-0.233-0.63-0.434c-0.176-0.199-0.313-0.463-0.413-0.79
		s-0.15-0.729-0.15-1.203c0-0.469,0.047-0.866,0.14-1.193s0.224-0.594,0.393-0.801c0.169-0.206,0.368-0.356,0.6-0.449
		c0.23-0.093,0.483-0.14,0.759-0.14c0.578,0,1.018,0.189,1.317,0.568s0.449,0.991,0.449,1.839v0.258H86.942z M89.307,59.543
		c0-0.316-0.024-0.582-0.072-0.795c-0.048-0.214-0.119-0.386-0.212-0.517s-0.21-0.224-0.351-0.279
		c-0.142-0.055-0.309-0.082-0.501-0.082c-0.173,0-0.329,0.025-0.471,0.077c-0.141,0.052-0.265,0.143-0.371,0.273
		c-0.107,0.131-0.191,0.304-0.254,0.517c-0.062,0.214-0.103,0.482-0.124,0.806H89.307z"/>
	<path d="M91.724,57.467h0.435l0.145,0.837c0.206-0.255,0.434-0.47,0.682-0.646s0.52-0.264,0.815-0.264
		c0.028,0,0.059,0.002,0.094,0.005c0.034,0.004,0.055,0.009,0.062,0.016l-0.062,0.661c-0.042-0.021-0.114-0.031-0.217-0.031
		c-0.255,0-0.486,0.062-0.692,0.187c-0.207,0.124-0.42,0.307-0.641,0.547v3.626h-0.62V57.467z"/>
</g>
</svg>
