<?xml version="1.0" encoding="utf-8"?>
<!-- Generator: Adobe Illustrator 18.0.0, SVG Export Plug-In . SVG Version: 6.00 Build 0)  -->
<!DOCTYPE svg PUBLIC "-//W3C//DTD SVG 1.1//EN" "http://www.w3.org/Graphics/SVG/1.1/DTD/svg11.dtd">
<svg version="1.1" id="Ebene_1" xmlns="http://www.w3.org/2000/svg" xmlns:xlink="http://www.w3.org/1999/xlink" x="0px" y="0px"
	 viewBox="-99.5 825.8 926.1 135.1" enable-background="new -99.5 825.8 926.1 135.1" xml:space="preserve">
<g>
	<path d="M290,863.7l10.1,26.8l10-26.8h7.9v35.1H312v-11.6l0.6-15.4l-10.3,27h-4.4l-10.3-27l0.6,15.4v11.6h-6.1v-35.1H290z"/>
	<path d="M340.6,898.7c-0.2-0.3-0.3-0.7-0.4-1c-0.1-0.4-0.2-0.9-0.3-1.3c-0.4,0.4-0.9,0.8-1.3,1.1c-0.5,0.4-0.9,0.7-1.6,0.9
		c-0.6,0.3-1.2,0.5-1.9,0.7c-0.7,0.2-1.4,0.2-2.1,0.2c-1.3,0-2.5-0.2-3.6-0.6c-1.1-0.4-2-0.9-2.8-1.6c-0.8-0.7-1.4-1.5-1.8-2.5
		c-0.5-0.9-0.7-2-0.7-3c0-1.4,0.3-2.7,0.8-3.7c0.6-1,1.3-2,2.3-2.7s2.3-1.2,3.7-1.6c1.4-0.4,3.1-0.6,5-0.6h3.7v-1.7
		c0-1.3-0.4-2.5-1.1-3.2c-0.8-0.9-1.9-1.2-3.4-1.2c-0.7,0-1.3,0.1-1.9,0.3c-0.6,0.2-1,0.5-1.4,0.8s-0.7,0.7-0.9,1.1
		s-0.3,0.9-0.3,1.4h-5.9c0-1,0.3-2,0.8-2.9s1.2-1.8,2.2-2.6c0.9-0.8,2.1-1.3,3.4-1.8c1.3-0.5,2.8-0.7,4.5-0.7c1.4,0,2.8,0.2,4.1,0.6
		c1.2,0.4,2.3,0.9,3.2,1.7c0.9,0.8,1.6,1.7,2.1,2.7c0.5,1.1,0.8,2.5,0.8,3.9V893c0,2.4,0.3,4.2,0.9,5.6v0.4h-5.9V898.7z
		 M334.2,894.6c0.7,0,1.3-0.1,1.9-0.3c0.6-0.2,1.1-0.4,1.6-0.7c0.5-0.3,0.9-0.7,1.2-1c0.4-0.4,0.7-0.8,0.9-1.1v-4.9h-3.1
		c-2.2,0-3.8,0.4-4.9,1.1c-1.1,0.8-1.6,1.8-1.6,3.2c0,0.6,0.1,1,0.3,1.4c0.2,0.5,0.5,0.9,0.8,1.1c0.4,0.3,0.8,0.6,1.3,0.8
		C332.8,894.5,333.5,894.6,334.2,894.6z"/>
	<path d="M366.4,891.6c0-0.4-0.1-0.9-0.2-1.1c-0.1-0.4-0.4-0.7-0.9-1c-0.4-0.3-0.9-0.6-1.7-0.9c-0.8-0.3-1.7-0.6-2.8-0.8
		c-1.4-0.3-2.7-0.7-3.8-1c-1.1-0.5-2.1-0.9-2.9-1.6c-0.9-0.7-1.4-1.3-1.9-2.2c-0.5-0.9-0.7-1.8-0.7-2.8s0.2-2.1,0.7-3
		c0.5-0.9,1.1-1.8,2-2.6c0.9-0.8,1.9-1.3,3.2-1.7c1.2-0.4,2.7-0.7,4.2-0.7c1.6,0,3,0.2,4.4,0.7c1.3,0.4,2.4,1,3.3,1.8
		c0.9,0.8,1.6,1.6,2.1,2.7c0.5,1,0.7,2.1,0.7,3.3h-5.9c0-0.5-0.1-0.9-0.3-1.4c-0.2-0.5-0.5-0.9-0.9-1.2c-0.4-0.4-0.9-0.7-1.4-0.9
		c-0.6-0.2-1.2-0.3-2-0.3s-1.4,0.1-1.9,0.3c-0.6,0.2-1,0.4-1.3,0.8c-0.4,0.3-0.7,0.7-0.9,1c-0.2,0.4-0.3,0.9-0.3,1.2
		s0.1,0.9,0.3,1.1c0.2,0.4,0.5,0.7,0.9,0.9s0.9,0.6,1.6,0.8s1.5,0.5,2.6,0.7c1.5,0.3,2.8,0.7,4.1,1.1c1.2,0.5,2.2,0.9,3,1.6
		s1.4,1.3,1.9,2.2c0.5,0.9,0.7,1.9,0.7,3c0,1.1-0.3,2.2-0.8,3.2c-0.5,0.9-1.2,1.8-2.1,2.5c-0.9,0.7-2,1.2-3.3,1.6
		c-1.3,0.4-2.7,0.6-4.4,0.6c-1.8,0-3.3-0.3-4.7-0.8s-2.6-1.1-3.4-2c-0.9-0.9-1.6-1.7-2.1-2.7c-0.5-1-0.7-2.1-0.7-3.1h5.7
		c0.1,0.8,0.2,1.5,0.6,2c0.3,0.6,0.8,0.9,1.2,1.3c0.5,0.4,1,0.6,1.7,0.8s1.2,0.2,1.9,0.2c1.5,0,2.7-0.3,3.5-0.9
		C365.9,893.3,366.4,892.6,366.4,891.6z"/>
	<path d="M385.3,866.3v6.3h4.5v4.4h-4.5v14.5c0,0.6,0.1,1,0.2,1.4c0.1,0.4,0.3,0.7,0.6,0.9c0.3,0.2,0.6,0.4,0.9,0.4
		c0.3,0.1,0.7,0.1,1.1,0.1c0.4,0,0.8,0,1.1-0.1c0.4-0.1,0.7-0.1,0.9-0.2v4.5c-0.5,0.1-1,0.3-1.6,0.4c-0.7,0.1-1.3,0.2-2.2,0.2
		c-0.9,0-1.9-0.1-2.7-0.4c-0.9-0.3-1.5-0.7-2.2-1.2c-0.7-0.6-1-1.3-1.4-2.3c-0.4-0.9-0.5-2.1-0.5-3.4v-14.9h-4.4v-4.4h4.3v-6.3
		L385.3,866.3L385.3,866.3z"/>
	<path d="M405.6,899.2c-1.9,0-3.7-0.3-5.2-0.9c-1.5-0.7-2.8-1.5-3.9-2.7s-1.9-2.5-2.5-4c-0.6-1.5-0.9-3.2-0.9-5v-0.9
		c0-2.1,0.3-3.9,0.9-5.6c0.6-1.7,1.4-3,2.5-4.3c1-1.1,2.3-2.1,3.7-2.7c1.4-0.7,2.9-0.9,4.6-0.9c1.9,0,3.5,0.3,4.9,0.9
		c1.4,0.7,2.6,1.5,3.5,2.7c0.9,1.1,1.6,2.5,2.1,4.1c0.5,1.6,0.7,3.3,0.7,5.2v2.5h-17.1c0.1,1,0.3,1.9,0.7,2.7
		c0.4,0.9,0.9,1.6,1.4,2.2c0.6,0.7,1.3,1.1,2.1,1.4c0.9,0.4,1.7,0.6,2.7,0.6c1.4,0,2.7-0.3,3.8-0.9c1-0.6,2-1.3,2.7-2.4l3.1,3
		c-0.4,0.7-0.9,1.2-1.5,1.8c-0.7,0.6-1.3,1.1-2.2,1.6s-1.8,0.9-2.8,1.1C408.1,899.1,406.9,899.2,405.6,899.2z M404.9,876.9
		c-1.6,0-2.9,0.6-3.9,1.7s-1.6,2.7-1.9,4.7h11.1v-0.5c-0.1-0.8-0.2-1.5-0.4-2.2c-0.2-0.8-0.5-1.3-0.9-1.9c-0.5-0.6-0.9-0.9-1.6-1.3
		C406.7,877,405.9,876.9,404.9,876.9z"/>
	<path d="M434.9,878.1c-0.4-0.1-0.8-0.1-1.1-0.2c-0.4,0-0.8-0.1-1.2-0.1c-1.4,0-2.6,0.3-3.4,0.9c-0.9,0.6-1.5,1.3-2,2.3v17.8h-5.9
		v-26.1h5.6l0.2,2.9c0.7-1,1.5-1.9,2.5-2.5s2.1-0.9,3.4-0.9c0.4,0,0.8,0,1.1,0.1c0.4,0.1,0.8,0.2,0.9,0.2L434.9,878.1z"/>
	<path d="M453.5,898.7v-35.1h10.3c2.4,0,4.5,0.4,6.4,1.1c1.9,0.8,3.6,1.9,5,3.3c1.4,1.4,2.5,3.2,3.2,5.2c0.8,2.1,1.1,4.4,1.1,6.9
		v1.7c0,2.6-0.4,4.8-1.1,6.8c-0.8,2-1.8,3.8-3.2,5.2c-1.4,1.4-3.1,2.6-5.1,3.3c-2,0.8-4.2,1.1-6.6,1.1h-10V898.7z M459.5,868.6v25.3
		h4c1.6,0,3.1-0.3,4.4-0.9c1.2-0.6,2.3-1.3,3.1-2.4c0.9-1,1.4-2.3,1.9-3.7c0.4-1.4,0.7-3.1,0.7-4.9v-1.8c0-3.8-0.9-6.7-2.5-8.7
		c-1.6-2-4.1-3-7.2-3L459.5,868.6L459.5,868.6z"/>
	<path d="M496.9,899.2c-1.9,0-3.7-0.3-5.2-0.9s-2.8-1.5-3.9-2.7c-1-1.1-1.9-2.5-2.5-4c-0.6-1.5-0.9-3.2-0.9-5v-0.9
		c0-2.1,0.3-3.9,0.9-5.6c0.7-1.7,1.4-3,2.5-4.3c1-1.1,2.3-2.1,3.7-2.7c1.4-0.7,2.9-0.9,4.6-0.9c1.9,0,3.5,0.3,4.9,0.9
		c1.4,0.7,2.6,1.5,3.5,2.7c0.9,1.1,1.6,2.5,2.1,4.1c0.5,1.6,0.7,3.3,0.7,5.2v2.5h-17.1c0.1,1,0.3,1.9,0.7,2.7
		c0.4,0.9,0.9,1.6,1.4,2.2c0.6,0.7,1.3,1.1,2.1,1.4c0.9,0.4,1.7,0.6,2.7,0.6c1.4,0,2.7-0.3,3.8-0.9c1.1-0.6,2-1.3,2.7-2.4l3.1,3
		c-0.4,0.7-0.9,1.2-1.5,1.8c-0.7,0.6-1.3,1.1-2.2,1.6s-1.8,0.9-2.8,1.1C499.3,899.1,498.1,899.2,496.9,899.2z M496.1,876.9
		c-1.6,0-2.9,0.6-3.9,1.7c-0.9,1.1-1.6,2.7-1.9,4.7h11.2v-0.5c-0.1-0.8-0.2-1.5-0.4-2.2c-0.2-0.8-0.5-1.3-0.9-1.9
		c-0.5-0.6-0.9-0.9-1.6-1.3C497.9,877,497,876.9,496.1,876.9z"/>
	<path d="M526.7,891.6c0-0.4-0.1-0.9-0.2-1.1c-0.1-0.3-0.4-0.7-0.9-1c-0.5-0.4-0.9-0.6-1.7-0.9c-0.8-0.3-1.7-0.6-2.8-0.8
		c-1.4-0.3-2.7-0.7-3.8-1c-1.1-0.4-2.1-0.9-2.9-1.6c-0.9-0.7-1.4-1.3-1.9-2.2c-0.5-0.9-0.7-1.8-0.7-2.8s0.2-2.1,0.7-3
		c0.5-0.9,1.1-1.8,2-2.6s1.9-1.3,3.2-1.7c1.2-0.4,2.7-0.7,4.2-0.7c1.6,0,3,0.2,4.4,0.7c1.3,0.4,2.4,1,3.3,1.8
		c0.9,0.8,1.6,1.6,2.1,2.7c0.5,1,0.7,2.1,0.7,3.3h-5.9c0-0.5-0.1-0.9-0.3-1.4c-0.2-0.5-0.5-0.9-0.9-1.2c-0.4-0.4-0.9-0.7-1.4-0.9
		c-0.6-0.2-1.2-0.3-2-0.3c-0.8,0-1.4,0.1-1.9,0.3c-0.6,0.2-1,0.4-1.3,0.8c-0.4,0.3-0.7,0.7-0.9,1c-0.2,0.4-0.3,0.9-0.3,1.2
		s0.1,0.9,0.3,1.1c0.2,0.3,0.5,0.7,0.9,0.9s0.9,0.6,1.6,0.8c0.7,0.2,1.5,0.5,2.6,0.7c1.5,0.3,2.8,0.7,4.1,1.1c1.2,0.5,2.2,0.9,3,1.6
		c0.9,0.7,1.4,1.3,1.9,2.2s0.7,1.9,0.7,3c0,1.1-0.3,2.2-0.8,3.2c-0.5,1-1.2,1.8-2.1,2.5c-0.9,0.7-2,1.2-3.3,1.6
		c-1.3,0.4-2.7,0.6-4.4,0.6c-1.8,0-3.3-0.3-4.7-0.8c-1.4-0.5-2.6-1.1-3.4-2c-0.9-0.9-1.6-1.7-2.1-2.7c-0.5-1-0.7-2.1-0.7-3.1h5.7
		c0.1,0.8,0.2,1.5,0.6,2c0.3,0.6,0.8,0.9,1.2,1.3c0.5,0.4,1,0.6,1.7,0.8c0.7,0.2,1.2,0.2,1.9,0.2c1.5,0,2.7-0.3,3.5-0.9
		C526.2,893.3,526.7,892.6,526.7,891.6z"/>
	<path d="M537.7,865.9c0-0.9,0.3-1.6,0.9-2.3c0.6-0.6,1.4-0.9,2.5-0.9s1.9,0.3,2.5,0.9c0.6,0.6,0.9,1.3,0.9,2.3
		c0,0.9-0.3,1.6-0.9,2.2c-0.6,0.6-1.4,0.9-2.5,0.9s-1.9-0.3-2.5-0.9S537.7,866.8,537.7,865.9z M543.9,898.7h-5.9v-26.1h5.9V898.7z"
		/>
	<path d="M549.5,885.6c0-2,0.3-3.8,0.8-5.4c0.5-1.6,1.1-3,2.1-4.2c0.9-1.1,2-2.1,3.3-2.7c1.3-0.7,2.7-0.9,4.4-0.9
		c1.6,0,2.9,0.3,4.1,0.9s2.1,1.3,2.9,2.3l0.3-2.7h5.3v25.3c0,1.7-0.3,3.3-0.9,4.6c-0.6,1.3-1.4,2.5-2.5,3.4s-2.3,1.6-3.7,2.1
		c-1.4,0.5-3,0.8-4.7,0.8c-0.8,0-1.5-0.1-2.4-0.2c-0.9-0.1-1.8-0.4-2.7-0.8s-1.8-0.8-2.6-1.3c-0.9-0.6-1.5-1.2-2.1-2l2.7-3.5
		c0.9,1.1,2,2,3.1,2.5c1.1,0.5,2.3,0.8,3.5,0.8c1.9,0,3.5-0.6,4.5-1.6c1-1,1.7-2.6,1.7-4.6v-1.8c-0.9,0.9-1.8,1.6-2.8,2.1
		s-2.4,0.8-3.9,0.8c-1.6,0-3-0.4-4.3-1c-1.2-0.7-2.4-1.6-3.3-2.7c-0.9-1.1-1.6-2.6-2.1-4.2c-0.5-1.6-0.8-3.4-0.8-5.2v-0.5H549.5z
		 M555.3,886c0,1.1,0.1,2.3,0.4,3.2c0.2,1,0.6,1.9,1.1,2.7c0.6,0.8,1.1,1.4,1.9,1.8c0.8,0.5,1.7,0.7,2.7,0.7c1.3,0,2.4-0.3,3.2-0.9
		s1.5-1.3,2-2.2v-11.5c-0.5-0.9-1.2-1.6-2-2.2c-0.8-0.6-1.9-0.8-3.1-0.8c-1,0-2,0.2-2.7,0.7c-0.8,0.5-1.4,1-1.9,1.8
		c-0.5,0.8-0.9,1.7-1.1,2.7c-0.3,1-0.4,2.2-0.4,3.3L555.3,886L555.3,886z"/>
	<path d="M584.4,872.7l0.2,3c0.9-1.1,2-2,3.3-2.6s2.7-0.9,4.3-0.9c1.2,0,2.4,0.2,3.4,0.5c1,0.4,1.9,0.9,2.7,1.7
		c0.8,0.8,1.2,1.8,1.7,3c0.4,1.2,0.6,2.7,0.6,4.5v16.9h-5.9v-16.9c0-0.9-0.1-1.6-0.3-2.3c-0.2-0.7-0.5-1.1-0.9-1.5
		c-0.4-0.4-0.9-0.7-1.4-0.9c-0.6-0.2-1.2-0.3-2-0.3c-1.2,0-2.3,0.3-3.1,0.9s-1.6,1.3-2.1,2.4v18.6h-6v-26.1H584.4z"/>
	<path d="M619.6,889.2c0-1,0.2-2,0.5-2.8c0.3-0.9,0.8-1.6,1.3-2.4c0.6-0.8,1.2-1.4,2.1-2.1c0.8-0.7,1.7-1.3,2.7-2
		c-0.6-0.7-1-1.4-1.5-2.1c-0.5-0.7-0.9-1.3-1.1-1.9c-0.3-0.7-0.6-1.2-0.8-1.9c-0.2-0.7-0.3-1.3-0.3-2c0-1.4,0.2-2.7,0.7-3.7
		c0.5-1.1,1-2,1.9-2.7c0.8-0.8,1.8-1.3,2.9-1.8c1.1-0.5,2.4-0.6,3.8-0.6c1.3,0,2.6,0.2,3.6,0.7c1,0.4,2,0.9,2.7,1.7
		c0.8,0.8,1.3,1.5,1.7,2.5c0.4,0.9,0.6,2,0.6,3c0,0.9-0.1,1.6-0.4,2.4c-0.2,0.8-0.6,1.4-0.9,2s-0.9,1.2-1.5,1.8
		c-0.6,0.6-1.2,1-1.9,1.6l-2.4,1.7l6.7,8c0.5-0.9,0.9-1.9,1-2.9c0.3-1,0.4-2.2,0.4-3.4h5.1c0,2.1-0.3,4-0.8,5.8s-1.2,3.4-2.3,4.8
		l5.1,6.1h-6.8l-2-2.4c-1.3,0.9-2.7,1.7-4.2,2.1c-1.5,0.4-3.1,0.7-4.7,0.7c-1.8,0-3.3-0.3-4.7-0.8c-1.4-0.5-2.7-1.1-3.6-2.1
		c-0.9-0.9-1.7-1.9-2.3-3.1C619.9,892.1,619.6,890.7,619.6,889.2z M631.3,894.6c0.9,0,1.9-0.2,2.8-0.5c0.9-0.3,1.8-0.9,2.7-1.4
		l-7.7-9l-0.8,0.6c-0.7,0.5-1.1,0.9-1.5,1.4c-0.4,0.5-0.7,0.9-0.9,1.3c-0.2,0.4-0.3,0.9-0.4,1.2c-0.1,0.4-0.1,0.7-0.1,0.9
		c0,0.8,0.1,1.5,0.4,2.2c0.3,0.7,0.7,1.2,1.1,1.7c0.5,0.5,1.1,0.9,1.8,1.1C629.5,894.4,630.4,894.6,631.3,894.6z M628.1,872
		c0,0.8,0.2,1.6,0.7,2.5c0.5,0.9,1,1.7,1.8,2.7l2.1-1.4c0.5-0.4,0.9-0.7,1.2-0.9s0.7-0.7,0.9-0.9s0.4-0.7,0.5-1.1
		c0.1-0.4,0.2-0.9,0.2-1.3c0-0.4-0.1-0.8-0.3-1.2c-0.2-0.4-0.4-0.8-0.7-1c-0.3-0.3-0.7-0.6-1.1-0.8c-0.5-0.2-0.9-0.3-1.5-0.3
		s-1.1,0.1-1.6,0.3c-0.5,0.2-0.9,0.5-1.1,0.9c-0.3,0.4-0.6,0.9-0.7,1.3C628.2,870.9,628.1,871.4,628.1,872z"/>
	<path d="M674.8,863.7l10.1,26.8l10-26.8h7.9v35.1h-6.1v-11.6l0.6-15.4l-10.3,27h-4.4l-10.3-27l0.6,15.4v11.6h-6.1v-35.1H674.8z"/>
	<path d="M721.3,899.2c-1.9,0-3.7-0.3-5.2-0.9c-1.5-0.7-2.8-1.5-3.9-2.7c-1-1.1-1.9-2.5-2.5-4s-0.9-3.2-0.9-5v-0.9
		c0-2.1,0.3-3.9,0.9-5.6c0.7-1.7,1.4-3,2.5-4.3c1-1.1,2.3-2.1,3.7-2.7c1.4-0.7,2.9-0.9,4.6-0.9c1.9,0,3.5,0.3,4.9,0.9
		c1.4,0.7,2.6,1.5,3.5,2.7c0.9,1.1,1.6,2.5,2.1,4.1c0.5,1.6,0.7,3.3,0.7,5.2v2.5h-17.1c0.1,1,0.3,1.9,0.7,2.7
		c0.4,0.9,0.9,1.6,1.4,2.2c0.6,0.7,1.3,1.1,2.1,1.4c0.9,0.4,1.7,0.6,2.7,0.6c1.4,0,2.7-0.3,3.8-0.9c1.1-0.6,2-1.3,2.7-2.4l3.1,3
		c-0.4,0.7-0.9,1.2-1.5,1.8c-0.7,0.6-1.3,1.1-2.2,1.6s-1.8,0.9-2.8,1.1C723.8,899.1,722.6,899.2,721.3,899.2z M720.6,876.9
		c-1.6,0-2.9,0.6-3.9,1.7c-0.9,1.1-1.6,2.7-1.9,4.7H726v-0.5c-0.1-0.8-0.2-1.5-0.4-2.2c-0.2-0.8-0.5-1.3-0.9-1.9
		c-0.5-0.6-0.9-0.9-1.6-1.3C722.4,877,721.6,876.9,720.6,876.9z"/>
	<path d="M736,885.6c0-2,0.2-3.8,0.7-5.4c0.5-1.6,1.1-3,2.1-4.2c0.9-1.1,2-2.1,3.2-2.7c1.2-0.7,2.7-0.9,4.3-0.9
		c1.4,0,2.7,0.3,3.8,0.8c1.1,0.5,2.1,1.2,2.8,2.2v-13.5h5.9v37h-5.3l-0.3-2.7c-0.9,1-1.8,1.8-2.9,2.4s-2.5,0.9-4.1,0.9s-3-0.4-4.3-1
		c-1.2-0.7-2.4-1.6-3.2-2.7c-0.9-1.1-1.6-2.6-2.1-4.2s-0.8-3.4-0.8-5.2v-0.6H736z M741.8,886c0,1.1,0.1,2.3,0.3,3.2
		c0.2,1,0.6,1.9,1,2.7c0.5,0.8,1,1.4,1.8,1.8c0.8,0.5,1.6,0.7,2.7,0.7c1.3,0,2.4-0.3,3.2-0.9c0.9-0.6,1.5-1.3,2-2.4v-11.1
		c-0.5-0.9-1.1-1.7-2-2.3c-0.9-0.6-1.9-0.9-3.2-0.9c-1,0-2,0.2-2.7,0.7s-1.3,1-1.8,1.8c-0.5,0.8-0.9,1.7-1,2.7s-0.4,2.2-0.4,3.3v0.6
		H741.8z"/>
	<path d="M765.2,865.9c0-0.9,0.3-1.6,0.9-2.3c0.6-0.6,1.4-0.9,2.5-0.9c1,0,1.9,0.3,2.5,0.9s0.9,1.3,0.9,2.3c0,0.9-0.3,1.6-0.9,2.2
		c-0.6,0.6-1.4,0.9-2.5,0.9c-1,0-1.9-0.3-2.5-0.9S765.2,866.8,765.2,865.9z M771.3,898.7h-5.9v-26.1h5.9V898.7z"/>
	<path d="M789.3,899.2c-1.9,0-3.7-0.3-5.2-0.9c-1.5-0.7-2.8-1.5-3.9-2.7c-1-1.1-1.9-2.5-2.5-4s-0.9-3.2-0.9-5v-0.9
		c0-2.1,0.3-3.9,0.9-5.6c0.7-1.7,1.4-3,2.5-4.3c1-1.1,2.3-2.1,3.7-2.7c1.4-0.7,2.9-0.9,4.6-0.9c1.9,0,3.5,0.3,4.9,0.9
		c1.4,0.7,2.6,1.5,3.5,2.7c0.9,1.1,1.6,2.5,2.1,4.1c0.5,1.6,0.7,3.3,0.7,5.2v2.5h-17.1c0.1,1,0.3,1.9,0.7,2.7
		c0.4,0.9,0.9,1.6,1.4,2.2c0.6,0.7,1.3,1.1,2.1,1.4c0.9,0.4,1.7,0.6,2.7,0.6c1.4,0,2.7-0.3,3.8-0.9c1.1-0.6,2-1.3,2.7-2.4l3.1,3
		c-0.4,0.7-0.9,1.2-1.5,1.8c-0.7,0.6-1.3,1.1-2.2,1.6s-1.8,0.9-2.8,1.1C791.8,899.1,790.6,899.2,789.3,899.2z M788.6,876.9
		c-1.6,0-2.9,0.6-3.9,1.7c-0.9,1.1-1.6,2.7-1.9,4.7H794v-0.5c-0.1-0.8-0.2-1.5-0.4-2.2c-0.2-0.8-0.5-1.3-0.9-1.9
		c-0.5-0.6-0.9-0.9-1.6-1.3C790.4,877,789.5,876.9,788.6,876.9z"/>
	<path d="M810.5,872.7l0.2,3c0.9-1.1,2-2,3.3-2.6s2.7-0.9,4.3-0.9c1.2,0,2.4,0.2,3.4,0.5c1,0.4,1.9,0.9,2.7,1.7
		c0.8,0.8,1.2,1.8,1.7,3c0.4,1.2,0.6,2.7,0.6,4.5v16.9h-5.9v-16.9c0-0.9-0.1-1.6-0.3-2.3c-0.2-0.7-0.5-1.1-0.9-1.5
		c-0.4-0.4-0.9-0.7-1.4-0.9c-0.6-0.2-1.2-0.3-2-0.3c-1.2,0-2.3,0.3-3.1,0.9c-0.9,0.6-1.6,1.3-2.1,2.4v18.6h-5.9v-26.1H810.5z"/>
	<path d="M309.9,958.4h-6.1v-15.5h-15.6v15.5h-6.1v-35.1h6.1v14.6h15.6v-14.6h6.1V958.4z"/>
	<path d="M315.9,945.2c0-1.9,0.3-3.6,0.9-5.2c0.6-1.6,1.3-3,2.4-4.2c1-1.2,2.3-2.1,3.8-2.7c1.5-0.7,3.2-1,5.1-1c1.9,0,3.6,0.4,5.1,1
		s2.7,1.6,3.8,2.7c1,1.2,1.8,2.6,2.4,4.2c0.6,1.6,0.9,3.4,0.9,5.2v0.5c0,1.9-0.3,3.7-0.9,5.3s-1.3,3-2.4,4.2c-1,1.1-2.3,2.1-3.8,2.7
		c-1.5,0.7-3.2,1-5.1,1c-1.9,0-3.6-0.4-5.1-1c-1.5-0.7-2.7-1.6-3.8-2.7c-1-1.1-1.8-2.6-2.4-4.2c-0.6-1.6-0.9-3.4-0.9-5.3V945.2z
		 M321.8,945.6c0,1.1,0.1,2.3,0.4,3.3c0.3,1,0.7,2,1.1,2.7c0.5,0.8,1.1,1.4,2,1.8c0.8,0.5,1.7,0.7,2.8,0.7c1,0,2-0.2,2.8-0.7
		c0.8-0.5,1.4-1,2-1.8c0.6-0.8,0.9-1.7,1.1-2.7s0.4-2.2,0.4-3.3v-0.5c0-1.1-0.1-2.3-0.4-3.3c-0.3-1-0.7-1.9-1.1-2.7
		c-0.5-0.8-1.1-1.4-2-1.9c-0.8-0.5-1.7-0.7-2.8-0.7c-1.1,0-2,0.2-2.8,0.7c-0.8,0.5-1.4,1-1.9,1.9c-0.5,0.8-0.9,1.7-1.1,2.7
		c-0.3,1-0.4,2.1-0.4,3.3L321.8,945.6L321.8,945.6z"/>
	<path d="M356.2,954.2c0.7,0,1.3-0.1,2-0.3c0.7-0.2,1.1-0.5,1.6-0.9c0.5-0.5,0.9-0.9,1.1-1.4c0.3-0.6,0.5-1.1,0.5-1.8h5.5
		c-0.1,1.2-0.4,2.5-0.9,3.5c-0.6,1.1-1.3,2.1-2.3,2.9c-0.9,0.9-2.1,1.5-3.3,2c-1.2,0.5-2.7,0.7-4.1,0.7c-2,0-3.8-0.4-5.2-1
		c-1.5-0.7-2.7-1.6-3.7-2.8c-0.9-1.2-1.7-2.6-2.2-4.2c-0.5-1.6-0.8-3.3-0.8-5V945c0-1.8,0.3-3.5,0.8-5c0.5-1.5,1.2-2.9,2.2-4.2
		c0.9-1.2,2.2-2.2,3.7-2.8c1.5-0.7,3.2-1,5.2-1c1.6,0,3,0.3,4.3,0.8c1.3,0.5,2.4,1.1,3.3,2c0.9,0.9,1.6,1.9,2.2,3.1
		c0.5,1.2,0.9,2.6,0.9,4h-5.5c0-0.7-0.2-1.3-0.4-2c-0.3-0.7-0.6-1.1-1-1.6c-0.5-0.5-0.9-0.9-1.6-1.1s-1.3-0.4-2.1-0.4
		c-1.2,0-2.2,0.3-2.9,0.8s-1.4,1.1-1.8,1.9c-0.5,0.8-0.8,1.7-0.9,2.7c-0.2,0.9-0.3,2-0.3,3v0.9c0,1,0.1,2.1,0.3,3.1
		c0.2,1,0.5,1.9,0.9,2.7c0.5,0.8,1,1.4,1.8,1.9C354,954,354.9,954.2,356.2,954.2z"/>
	<path d="M377.7,935.2c0.9-1,2-1.9,3.2-2.5c1.2-0.6,2.6-0.9,4.1-0.9c1.2,0,2.5,0.2,3.5,0.6c1,0.4,1.9,0.9,2.7,1.7
		c0.8,0.8,1.3,1.8,1.7,3c0.4,1.2,0.6,2.7,0.6,4.5v16.7h-5.9v-16.8c0-1.8-0.4-3-1.1-3.8c-0.8-0.8-1.9-1.1-3.4-1.1
		c-1.2,0-2.3,0.3-3.1,0.9c-0.9,0.6-1.6,1.3-2.1,2.3v18.6h-5.9v-37h5.9L377.7,935.2L377.7,935.2z"/>
	<path d="M414.1,951.3c0-0.4-0.1-0.9-0.2-1.1c-0.1-0.4-0.4-0.7-0.8-1c-0.4-0.3-0.9-0.6-1.7-0.9c-0.8-0.3-1.7-0.6-2.8-0.8
		c-1.4-0.3-2.7-0.7-3.8-1c-1.1-0.4-2.1-0.9-2.9-1.6c-0.9-0.7-1.4-1.3-1.9-2.2c-0.5-0.9-0.7-1.8-0.7-2.8c0-1,0.2-2.1,0.7-3
		c0.5-0.9,1.1-1.8,2-2.6s1.9-1.3,3.2-1.7s2.7-0.7,4.2-0.7c1.6,0,3,0.2,4.4,0.7c1.3,0.4,2.4,1,3.3,1.8c0.9,0.8,1.6,1.6,2.1,2.7
		c0.5,1,0.8,2.1,0.8,3.3H414c0-0.5-0.1-0.9-0.3-1.4s-0.5-0.9-0.9-1.2c-0.4-0.4-0.9-0.7-1.4-0.9c-0.6-0.2-1.2-0.3-2-0.3
		c-0.8,0-1.4,0.1-1.9,0.3c-0.6,0.2-1,0.4-1.3,0.8c-0.3,0.4-0.7,0.7-0.9,1c-0.2,0.4-0.3,0.9-0.3,1.2c0,0.4,0.1,0.9,0.3,1.1
		c0.2,0.4,0.5,0.7,0.9,0.9c0.4,0.3,0.9,0.6,1.6,0.8c0.7,0.2,1.5,0.5,2.6,0.7c1.5,0.3,2.8,0.7,4.1,1.1c1.2,0.5,2.2,0.9,3,1.6
		s1.4,1.3,1.9,2.2c0.5,0.9,0.7,1.9,0.7,3c0,1.1-0.3,2.2-0.8,3.2c-0.5,0.9-1.2,1.8-2.1,2.5c-0.9,0.7-2,1.2-3.3,1.6
		c-1.3,0.4-2.7,0.6-4.4,0.6c-1.8,0-3.3-0.3-4.7-0.8c-1.3-0.5-2.6-1.1-3.4-2c-0.9-0.9-1.6-1.7-2.1-2.7c-0.5-1-0.7-2.1-0.7-3.1h5.7
		c0.1,0.8,0.2,1.5,0.6,2c0.3,0.6,0.8,0.9,1.2,1.3c0.5,0.4,1,0.6,1.7,0.8c0.7,0.2,1.2,0.2,1.9,0.2c1.5,0,2.7-0.3,3.5-0.9
		C413.8,953,414.1,952.3,414.1,951.3z"/>
	<path d="M435.8,954.2c0.7,0,1.3-0.1,2-0.3c0.7-0.2,1.1-0.5,1.6-0.9s0.9-0.9,1.1-1.4c0.3-0.6,0.5-1.1,0.5-1.8h5.5
		c-0.1,1.2-0.4,2.5-0.9,3.5c-0.6,1.1-1.3,2.1-2.3,2.9c-0.9,0.9-2.1,1.5-3.3,2c-1.2,0.5-2.7,0.7-4.1,0.7c-2,0-3.8-0.4-5.2-1
		c-1.5-0.7-2.7-1.6-3.7-2.8c-0.9-1.2-1.7-2.6-2.2-4.2c-0.5-1.6-0.8-3.3-0.8-5V945c0-1.8,0.3-3.5,0.8-5c0.5-1.5,1.2-2.9,2.2-4.2
		c0.9-1.2,2.2-2.2,3.7-2.8c1.5-0.7,3.2-1,5.2-1c1.6,0,3,0.3,4.3,0.8c1.3,0.5,2.4,1.1,3.3,2c0.9,0.9,1.6,1.9,2.2,3.1
		c0.5,1.2,0.8,2.6,0.9,4H441c0-0.7-0.2-1.3-0.4-2c-0.3-0.7-0.6-1.1-1-1.6c-0.5-0.5-0.9-0.9-1.6-1.1c-0.7-0.3-1.3-0.4-2.1-0.4
		c-1.2,0-2.2,0.3-2.9,0.8c-0.8,0.5-1.4,1.1-1.8,1.9c-0.5,0.8-0.8,1.7-0.9,2.7c-0.2,0.9-0.3,2-0.3,3v0.9c0,1,0.1,2.1,0.3,3.1
		c0.2,1,0.5,1.9,0.9,2.7c0.5,0.8,1,1.4,1.8,1.9C433.7,954,434.7,954.2,435.8,954.2z"/>
	<path d="M457.4,935.2c0.9-1,2-1.9,3.2-2.5c1.2-0.6,2.6-0.9,4.1-0.9c1.2,0,2.5,0.2,3.5,0.6c1,0.4,1.9,0.9,2.7,1.7
		c0.8,0.8,1.3,1.8,1.7,3c0.4,1.2,0.6,2.7,0.6,4.5v16.7h-5.9v-16.8c0-1.8-0.4-3-1.1-3.8c-0.8-0.8-1.9-1.1-3.4-1.1
		c-1.2,0-2.3,0.3-3.1,0.9c-0.9,0.6-1.6,1.3-2.1,2.3v18.6h-5.9v-37h5.9L457.4,935.2L457.4,935.2z"/>
	<path d="M495.2,955.9c-0.9,0.9-1.8,1.7-3,2.3c-1.2,0.6-2.7,0.8-4.3,0.8c-1.3,0-2.5-0.2-3.5-0.6c-1-0.4-2-0.9-2.7-1.7
		c-0.8-0.8-1.3-1.8-1.8-3c-0.5-1.2-0.7-2.7-0.7-4.5v-16.9h5.9v16.9c0,0.9,0.1,1.7,0.4,2.4c0.3,0.7,0.6,1.1,0.9,1.5
		c0.4,0.4,0.9,0.7,1.3,0.8c0.5,0.1,1,0.2,1.6,0.2c1.5,0,2.7-0.3,3.7-0.9s1.6-1.3,2.1-2.3v-18.7h5.9v26.2h-5.5L495.2,955.9z"/>
	<path d="M513.4,958.4h-5.9v-37h5.9V958.4z"/>
	<path d="M531.4,958.9c-1.9,0-3.7-0.3-5.2-0.9c-1.5-0.7-2.8-1.5-3.9-2.7c-1-1.1-1.9-2.5-2.5-4c-0.6-1.5-0.9-3.2-0.9-5v-0.9
		c0-2.1,0.3-3.9,0.9-5.6c0.7-1.7,1.4-3,2.5-4.3c1-1.2,2.3-2.1,3.7-2.7c1.4-0.6,2.9-0.9,4.6-0.9c1.9,0,3.5,0.3,4.9,0.9
		c1.4,0.7,2.6,1.5,3.5,2.7c0.9,1.1,1.6,2.5,2.1,4.1c0.5,1.6,0.7,3.3,0.7,5.2v2.5h-17.1c0.1,1,0.3,1.9,0.7,2.7
		c0.4,0.9,0.9,1.6,1.4,2.2s1.3,1.1,2.1,1.4c0.9,0.4,1.7,0.6,2.7,0.6c1.4,0,2.7-0.3,3.8-0.9c1.1-0.6,2-1.3,2.7-2.4l3.1,3
		c-0.4,0.7-0.9,1.2-1.5,1.8c-0.6,0.6-1.3,1.1-2.2,1.6s-1.8,0.9-2.8,1.1S532.8,958.9,531.4,958.9z M530.8,936.6
		c-1.6,0-2.9,0.6-3.9,1.7c-0.9,1.1-1.6,2.7-1.9,4.7h11.2v-0.5c-0.1-0.8-0.2-1.5-0.4-2.2c-0.2-0.7-0.5-1.3-0.9-1.9s-0.9-0.9-1.6-1.3
		C532.6,936.8,531.7,936.6,530.8,936.6z"/>
	<path d="M589,958.4H583v-15.5h-15.6v15.5h-6.1v-35.1h6.1v14.6H583v-14.6h6.1V958.4z"/>
	<path d="M611.6,958.4c-0.2-0.3-0.3-0.7-0.4-1c-0.1-0.4-0.2-0.9-0.3-1.3c-0.4,0.4-0.9,0.8-1.3,1.1s-0.9,0.7-1.6,0.9
		c-0.7,0.3-1.2,0.5-1.9,0.7c-0.7,0.2-1.4,0.2-2.1,0.2c-1.3,0-2.5-0.2-3.6-0.6s-2-0.9-2.8-1.6s-1.4-1.5-1.8-2.5c-0.5-0.9-0.7-2-0.7-3
		c0-1.4,0.3-2.7,0.8-3.7c0.6-1,1.3-2,2.3-2.7c0.9-0.7,2.3-1.2,3.7-1.6s3.1-0.6,5-0.6h3.7v-1.7c0-1.3-0.4-2.5-1.1-3.2
		c-0.8-0.8-1.9-1.2-3.4-1.2c-0.7,0-1.3,0.1-1.9,0.3s-1,0.5-1.4,0.8c-0.4,0.3-0.7,0.7-0.9,1.1s-0.3,0.9-0.3,1.4h-5.9
		c0-1,0.3-2,0.8-2.9c0.5-0.9,1.2-1.8,2.2-2.6c0.9-0.8,2.1-1.3,3.4-1.8c1.3-0.5,2.8-0.7,4.5-0.7c1.4,0,2.8,0.2,4.1,0.6
		c1.2,0.4,2.3,0.9,3.2,1.7c0.9,0.8,1.6,1.7,2.1,2.7c0.5,1,0.8,2.5,0.8,3.9v11.6c0,2.4,0.3,4.2,0.9,5.6v0.4h-5.9V958.4z M605.1,954.2
		c0.7,0,1.3-0.1,1.9-0.3s1.1-0.4,1.6-0.7c0.5-0.3,0.9-0.7,1.2-1s0.7-0.8,0.9-1.1v-4.9h-3.1c-2.2,0-3.8,0.4-4.9,1.1
		c-1.1,0.8-1.6,1.8-1.6,3.2c0,0.6,0.1,1,0.3,1.4c0.2,0.5,0.5,0.9,0.8,1.1s0.8,0.6,1.3,0.8S604.5,954.2,605.1,954.2z"/>
	<path d="M628.6,932.4l0.2,3c0.9-1.1,2-2,3.3-2.6c1.3-0.6,2.7-0.9,4.3-0.9c1.2,0,2.4,0.2,3.4,0.5c1,0.3,1.9,0.9,2.7,1.7
		c0.8,0.8,1.2,1.8,1.7,3c0.4,1.2,0.6,2.7,0.6,4.5v16.9h-5.9v-16.9c0-0.9-0.1-1.6-0.3-2.3s-0.5-1.1-0.9-1.5c-0.4-0.4-0.9-0.7-1.4-0.9
		c-0.6-0.2-1.2-0.3-2-0.3c-1.2,0-2.3,0.3-3.1,0.9c-0.9,0.6-1.6,1.3-2.1,2.4v18.6h-5.9v-26.1H628.6z"/>
	<path d="M656.5,932.4l0.2,3c0.9-1.1,2-2,3.3-2.6c1.3-0.6,2.7-0.9,4.3-0.9c1.2,0,2.4,0.2,3.4,0.5c1,0.3,1.9,0.9,2.7,1.7
		c0.8,0.8,1.2,1.8,1.7,3c0.4,1.2,0.6,2.7,0.6,4.5v16.9h-5.9v-16.9c0-0.9-0.1-1.6-0.3-2.3s-0.5-1.1-0.9-1.5c-0.4-0.4-0.9-0.7-1.4-0.9
		s-1.2-0.3-2-0.3c-1.2,0-2.3,0.3-3.1,0.9c-0.9,0.6-1.6,1.3-2.1,2.4v18.6h-6.1v-26.1H656.5z"/>
	<path d="M677.7,945.2c0-1.9,0.3-3.6,0.9-5.2c0.6-1.6,1.3-3,2.4-4.2c1-1.2,2.3-2.1,3.8-2.7c1.5-0.7,3.2-1,5.1-1s3.6,0.4,5.1,1
		c1.5,0.7,2.7,1.6,3.8,2.7c1,1.2,1.8,2.6,2.4,4.2c0.6,1.6,0.9,3.4,0.9,5.2v0.5c0,1.9-0.3,3.7-0.9,5.3s-1.3,3-2.4,4.2
		c-1,1.1-2.3,2.1-3.8,2.7c-1.5,0.7-3.2,1-5.1,1s-3.6-0.4-5.1-1c-1.5-0.7-2.7-1.6-3.8-2.7c-1-1.1-1.8-2.6-2.4-4.2
		c-0.6-1.6-0.9-3.4-0.9-5.3V945.2z M683.6,945.6c0,1.1,0.1,2.3,0.4,3.3c0.3,1,0.7,2,1.1,2.7c0.5,0.8,1.1,1.4,2,1.8
		c0.8,0.5,1.7,0.7,2.8,0.7c1,0,2-0.2,2.8-0.7c0.8-0.5,1.4-1,2-1.8c0.6-0.8,0.9-1.7,1.1-2.7s0.4-2.2,0.4-3.3v-0.5
		c0-1.1-0.1-2.3-0.4-3.3c-0.3-1-0.7-1.9-1.1-2.7c-0.5-0.9-1.1-1.4-2-1.9c-0.8-0.5-1.7-0.7-2.8-0.7c-1.1,0-2,0.2-2.8,0.7
		c-0.8,0.5-1.4,1-1.9,1.9s-0.9,1.7-1.1,2.7c-0.3,1-0.4,2.1-0.4,3.3L683.6,945.6L683.6,945.6z"/>
	<path d="M715.5,951l5.5-18.7h6.1l-9,26.1H713l-9.1-26.1h6.1L715.5,951z"/>
	<path d="M741.5,958.9c-1.9,0-3.7-0.3-5.2-0.9c-1.5-0.7-2.8-1.5-3.9-2.7c-1-1.1-1.9-2.5-2.5-4c-0.6-1.5-0.9-3.2-0.9-5v-0.9
		c0-2.1,0.3-3.9,0.9-5.6c0.7-1.7,1.4-3,2.5-4.3c1-1.2,2.3-2.1,3.7-2.7c1.4-0.6,2.9-0.9,4.6-0.9c1.9,0,3.5,0.3,4.9,0.9
		c1.4,0.7,2.6,1.5,3.5,2.7c0.9,1.1,1.6,2.5,2.1,4.1c0.5,1.6,0.7,3.3,0.7,5.2v2.5H735c0.1,1,0.3,1.9,0.7,2.7c0.4,0.9,0.9,1.6,1.4,2.2
		s1.3,1.1,2.1,1.4c0.9,0.4,1.7,0.6,2.7,0.6c1.4,0,2.7-0.3,3.8-0.9c1.1-0.6,2-1.3,2.7-2.4l3.1,3c-0.4,0.7-0.9,1.2-1.5,1.8
		c-0.6,0.6-1.3,1.1-2.2,1.6s-1.8,0.9-2.8,1.1C744,958.8,742.8,958.9,741.5,958.9z M740.8,936.6c-1.6,0-2.9,0.6-3.9,1.7
		c-0.9,1.1-1.6,2.7-1.9,4.7h11.2v-0.5c-0.1-0.8-0.2-1.5-0.4-2.2c-0.2-0.7-0.5-1.3-0.9-1.9c-0.5-0.6-0.9-0.9-1.6-1.3
		S741.8,936.6,740.8,936.6z"/>
	<path d="M770.8,937.8c-0.4-0.1-0.8-0.1-1.1-0.2c-0.4,0-0.8-0.1-1.2-0.1c-1.4,0-2.6,0.3-3.4,0.9c-0.9,0.6-1.5,1.3-2,2.3v17.8h-5.9
		v-26.1h5.6l0.2,2.9c0.7-1,1.5-1.9,2.5-2.5c0.9-0.6,2.1-0.9,3.4-0.9c0.4,0,0.8,0,1.1,0.1c0.4,0.1,0.8,0.2,0.9,0.2L770.8,937.8z"/>
</g>
<path fill="#E05918" d="M-99.5,866.3H-83l2.2,9.8c3.9-3.5,7.9-6.4,11.9-8.7c4.1-2.3,8.7-3.5,13.9-3.5c4.6,0,8.6,0.9,11.9,2.8
	c3.3,1.9,5.9,4.9,7.6,9c4-3.5,8.1-6.4,12.3-8.6c4.2-2.2,8.8-3.3,13.9-3.3c6.7,0,12,1.8,15.9,5.4c3.9,3.6,5.9,9.7,5.9,18.3v70.9H-8
	v-65.4c0-4.9-0.7-8-2-9.6c-1.3-1.5-3.6-2.3-6.7-2.3c-2.7,0-5.4,0.7-8.2,2.2c-2.8,1.5-5.5,3.3-8,5.5v69.6h-20.8v-65.4
	c0-4.9-0.7-8-2-9.6c-1.3-1.5-3.6-2.3-6.7-2.3c-2.8,0-5.5,0.8-8.2,2.4c-2.7,1.6-5.3,3.5-8,5.8v69.1h-20.8V866.3z"/>
<path fill="#E05918" d="M65.5,960.9c-4.6,0-8.9-0.7-12.8-2.2c-3.9-1.5-7.2-4-10-7.7c-2.8-3.6-5-8.5-6.6-14.7
	c-1.6-6.1-2.4-13.9-2.4-23.2c0-9.1,0.6-16.8,1.9-23.1c1.3-6.3,3.2-11.4,5.7-15.2c2.6-3.8,5.8-6.6,9.7-8.3c3.9-1.7,8.5-2.6,13.9-2.6
	c5,0,9.4,1,13.2,3.1c3.8,2.1,7,4.3,9.6,6.7v-47.9h20.8v132.7H91.9l-2.4-9.1c-3.5,3.8-7.2,6.6-11.1,8.6
	C74.6,959.9,70.2,960.9,65.5,960.9z M70.2,943.8c3.8,0,7-0.6,9.8-1.9c2.7-1.3,5.3-3.1,7.7-5.6v-47.8c-2.1-1.9-4.5-3.7-7.2-5.3
	c-2.7-1.6-5.7-2.4-9-2.4c-2.9,0-5.3,0.4-7.3,1.2c-1.9,0.8-3.5,2.3-4.7,4.6c-1.2,2.3-2.1,5.5-2.6,9.7c-0.5,4.1-0.8,9.5-0.8,16
	c0,6.6,0.2,11.9,0.7,15.9c0.5,4.1,1.3,7.3,2.4,9.6c1.1,2.3,2.6,3.9,4.4,4.6C65.3,943.4,67.6,943.8,70.2,943.8z"/>
<path fill="#E05918" d="M132.5,866.3h16.6l2.2,9.8c3.9-3.5,7.9-6.4,11.9-8.7c4.1-2.3,8.7-3.5,13.9-3.5c4.6,0,8.6,0.9,11.9,2.8
	c3.3,1.9,5.9,4.9,7.6,9c4-3.5,8.1-6.4,12.3-8.6c4.2-2.2,8.8-3.3,13.9-3.3c6.7,0,12,1.8,15.9,5.4c3.9,3.6,5.9,9.7,5.9,18.3v70.9H224
	v-65.4c0-4.9-0.7-8-2-9.6c-1.3-1.5-3.6-2.3-6.7-2.3c-2.7,0-5.4,0.7-8.2,2.2c-2.8,1.5-5.5,3.3-8,5.5v69.6h-20.8v-65.4
	c0-4.9-0.7-8-2-9.6c-1.3-1.5-3.6-2.3-6.7-2.3c-2.8,0-5.5,0.8-8.2,2.4c-2.7,1.6-5.3,3.5-8,5.8v69.1h-20.8V866.3z"/>
</svg>
